<?xml version="1.0" encoding="UTF-8"?>
<svg id="Layer_2" data-name="Layer 2" xmlns="http://www.w3.org/2000/svg" viewBox="0 0 95.27 53.71">
  <defs>
    <style>
      .cls-1 {
        fill: #b2aead;
      }
    </style>
  </defs>
  <g id="Layer_1-2" data-name="Layer 1">
    <g>
      <polygon class="cls-1" points="1.48 48.94 2.32 52.6 3.15 48.94 4.63 48.94 4.63 53.54 3.72 53.54 3.72 49.99 2.9 53.54 1.71 53.54 .88 49.97 .88 53.54 0 53.54 0 48.94 1.48 48.94"/>
      <path class="cls-1" d="M8.65,48.94l1.62,4.6h-1.06l-.3-.95h-1.71l-.31.95h-1.04l1.66-4.6h1.14ZM8.04,49.9l-.61,1.91h1.21l-.6-1.91Z"/>
      <polygon class="cls-1" points="12.4 48.94 12.4 50.95 14.21 48.94 15.42 48.94 13.55 50.85 15.55 53.54 14.33 53.54 12.9 51.51 12.4 52.02 12.4 53.54 11.47 53.54 11.47 48.94 12.4 48.94"/>
      <polygon class="cls-1" points="20.17 48.94 20.17 49.74 17.7 49.74 17.7 50.75 19.94 50.75 19.94 51.53 17.7 51.53 17.7 52.74 20.25 52.74 20.25 53.54 16.76 53.54 16.76 48.94 20.17 48.94"/>
      <polygon class="cls-1" points="27.07 48.94 27.07 49.74 24.6 49.74 24.6 50.75 26.85 50.75 26.85 51.53 24.6 51.53 24.6 52.74 27.15 52.74 27.15 53.54 23.67 53.54 23.67 48.94 27.07 48.94"/>
      <polygon class="cls-1" points="30.35 52.47 31.34 48.94 32.37 48.94 30.77 53.54 29.86 53.54 28.28 48.94 29.36 48.94 30.35 52.47"/>
      <polygon class="cls-1" points="36.98 48.94 36.98 49.74 34.52 49.74 34.52 50.75 36.76 50.75 36.76 51.53 34.52 51.53 34.52 52.74 37.07 52.74 37.07 53.54 33.58 53.54 33.58 48.94 36.98 48.94"/>
      <path class="cls-1" d="M40.65,48.94c.42,0,.75.09.97.27.3.23.48.61.48,1.04,0,.57-.22.91-.72,1.13.39.1.59.42.59.94v.59c0,.26.03.39.14.56,0,.02.03.05.05.08h-.97s-.06-.07-.08-.15c-.03-.09-.05-.17-.06-.26v-.2s0-.2,0-.2v-.2c-.03-.58-.21-.79-.65-.79h-1.14v1.8h-.93v-4.6h2.32ZM40.91,50.89c.16-.12.24-.3.24-.52,0-.26-.08-.43-.26-.54-.09-.06-.28-.1-.52-.1h-1.1v1.28h1.2c.21,0,.36-.04.44-.12"/>
      <polygon class="cls-1" points="45.04 51.06 45.94 48.94 47.04 48.94 45.49 52.01 45.49 53.54 44.54 53.54 44.54 51.98 42.97 48.94 44.11 48.94 45.04 51.06"/>
      <path class="cls-1" d="M52.26,48.94c.45,0,.84.08,1.05.24.27.19.44.56.44.93,0,.35-.12.61-.35.79-.06.06-.12.09-.23.17.17.09.3.17.4.26.2.17.32.47.32.82,0,.5-.21.95-.59,1.17-.25.16-.6.23-1.06.23h-2.17v-4.6h2.19ZM52.81,50.23c0-.39-.19-.52-.77-.52h-1.02v1.06h1.04c.55,0,.76-.15.76-.53M52.92,52.12c0-.39-.25-.61-.71-.61h-1.2v1.24h1.13c.52,0,.79-.21.79-.64"/>
      <rect class="cls-1" x="55.15" y="48.94" width=".93" height="4.6"/>
      <polygon class="cls-1" points="58.69 53.54 58.69 49.74 57.31 49.74 57.31 48.94 61.05 48.94 61.05 49.74 59.64 49.74 59.64 53.54 58.69 53.54"/>
      <polygon class="cls-1" points="65.68 48.94 65.68 49.74 63.22 49.74 63.22 50.75 65.46 50.75 65.46 51.53 63.22 51.53 63.22 52.74 65.76 52.74 65.76 53.54 62.28 53.54 62.28 48.94 65.68 48.94"/>
      <path class="cls-1" d="M71.5,48.94l1.62,4.6h-1.06l-.3-.95h-1.71l-.31.95h-1.04l1.66-4.6h1.14ZM70.89,49.9l-.61,1.91h1.21l-.6-1.91Z"/>
      <polygon class="cls-1" points="77.44 52.16 78 48.94 79.18 48.94 79.8 52.16 80.52 48.94 81.55 48.94 80.27 53.54 79.12 53.54 78.6 50.39 78.09 53.54 76.94 53.54 75.66 48.94 76.72 48.94 77.44 52.16"/>
      <rect class="cls-1" x="82.75" y="48.94" width=".93" height="4.6"/>
      <path class="cls-1" d="M86.01,52.65c.19.17.51.29.84.29.5,0,.89-.27.89-.59,0-.17-.1-.32-.28-.42-.1-.06-.25-.1-.38-.15l-.54-.14c-.64-.16-.98-.29-1.18-.46-.24-.21-.38-.53-.38-.92,0-.9.68-1.48,1.76-1.48.69,0,1.21.23,1.54.64.19.26.25.48.27.88h-.91c-.08-.52-.32-.71-.9-.71-.52,0-.86.23-.86.58,0,.16.07.28.2.36.08.05.2.09.32.12l.24.06.23.06.23.06c1.2.3,1.57.61,1.57,1.35,0,.42-.14.78-.41,1.06-.32.32-.78.48-1.44.48-.78,0-1.39-.26-1.71-.7-.16-.25-.21-.46-.23-.85h.91c.06.27.1.37.21.48"/>
      <polygon class="cls-1" points="90.86 48.94 90.86 50.68 92.7 50.68 92.7 48.94 93.64 48.94 93.64 53.54 92.7 53.54 92.7 51.48 90.86 51.48 90.86 53.54 89.93 53.54 89.93 48.94 90.86 48.94"/>
      <path class="cls-1" d="M2.8,5.17c1.81,0,3.53-.42,4.7-1.22,1.18-.8,1.68-1.72,2.02-3.95h4.41v28.02h-5.54V8.78H1.96v-3.61h.84Z"/>
      <path class="cls-1" d="M22.62,5.17c1.81,0,3.53-.42,4.7-1.22,1.18-.8,1.68-1.72,2.02-3.95h4.41v28.02h-5.54V8.78h-6.43v-3.61h.84Z"/>
      <path class="cls-1" d="M48.79,13.61h-5.92v-5.71h5.92v5.71ZM48.79,28.02h-5.92v-5.75h5.92v5.75Z"/>
      <path class="cls-1" d="M56.65,5.17c1.81,0,3.53-.42,4.7-1.22,1.18-.8,1.68-1.72,2.02-3.95h4.41v28.02h-5.54V8.78h-6.43v-3.61h.84Z"/>
      <path class="cls-1" d="M76.47,5.17c1.81,0,3.53-.42,4.7-1.22,1.18-.8,1.68-1.72,2.02-3.95h4.41v28.02h-5.54V8.78h-6.43v-3.61h.84Z"/>
      <polygon class="cls-1" points="8.98 32.57 8.98 34.69 2.48 34.69 2.48 37.36 8.39 37.36 8.39 39.4 2.48 39.4 2.48 42.61 9.2 42.61 9.2 44.72 0 44.72 0 32.57 8.98 32.57"/>
      <polygon class="cls-1" points="13.69 32.57 13.69 42.61 19.72 42.61 19.72 44.72 11.25 44.72 11.25 32.57 13.69 32.57"/>
      <polygon class="cls-1" points="25.18 41.9 27.79 32.57 30.52 32.57 26.29 44.72 23.89 44.72 19.72 32.57 22.58 32.57 25.18 41.9"/>
      <polygon class="cls-1" points="35.58 32.57 40.32 40.53 40.32 32.57 42.79 32.57 42.79 44.72 40.1 44.72 35.29 36.6 35.29 44.72 32.85 44.72 32.85 32.57 35.58 32.57"/>
      <polygon class="cls-1" points="59.83 32.57 59.83 34.69 53.32 34.69 53.32 37.36 59.24 37.36 59.24 39.4 53.32 39.4 53.32 42.61 60.04 42.61 60.04 44.72 50.85 44.72 50.85 32.57 59.83 32.57"/>
      <polygon class="cls-1" points="64.54 32.57 64.54 42.61 70.57 42.61 70.57 44.72 62.1 44.72 62.1 32.57 64.54 32.57"/>
      <polygon class="cls-1" points="76.03 41.9 78.63 32.57 81.37 32.57 77.14 44.72 74.74 44.72 70.57 32.57 73.43 32.57 76.03 41.9"/>
      <polygon class="cls-1" points="86.43 32.57 91.16 40.53 91.16 32.57 93.64 32.57 93.64 44.72 90.95 44.72 86.14 36.6 86.14 44.72 83.7 44.72 83.7 32.57 86.43 32.57"/>
      <path class="cls-1" d="M93.3,1.48c.18,0,.32.04.41.11.13.1.2.26.2.44,0,.24-.09.39-.31.48.17.04.25.18.25.4v.25c0,.11.01.17.06.24,0,0,.01.02.02.04h-.41s-.02-.03-.03-.06c-.01-.04-.02-.07-.02-.11v-.08s0-.08,0-.08v-.08c-.01-.25-.09-.34-.27-.34h-.48v.76h-.39v-1.95h.98ZM93.41,2.3c.07-.05.1-.13.1-.22,0-.11-.04-.18-.11-.23-.04-.03-.12-.04-.22-.04h-.47v.54h.51c.09,0,.15-.02.19-.05"/>
      <path class="cls-1" d="M93.1,4.62c-1.2,0-2.17-.97-2.17-2.17s.97-2.17,2.17-2.17,2.17.97,2.17,2.17-.97,2.17-2.17,2.17M93.1.56c-1.04,0-1.89.85-1.89,1.89s.85,1.89,1.89,1.89,1.89-.85,1.89-1.89-.85-1.89-1.89-1.89"/>
    </g>
  </g>
</svg>