<?xml version="1.0" encoding="UTF-8"?>
<svg id="Layer_2" data-name="Layer 2" xmlns="http://www.w3.org/2000/svg" viewBox="0 0 124.37 28.12">
  <defs>
    <style>
      .cls-1 {
        fill-rule: evenodd;
      }

      .cls-1, .cls-2 {
        fill: #b2aead;
      }
    </style>
  </defs>
  <g id="Layer_1-2" data-name="Layer 1">
    <g>
      <path class="cls-1" d="M21.23,14.54h0c1.83,1.38,3.01,3.57,3.01,6.03,0,4.15-3.4,7.55-7.55,7.55h-8.27c0-1,0-2.01,0-3.02,0-.4,0-4.75,0-4.75v-.48c.12-2.89,2.44-5.21,5.33-5.32,1.57,0,3.15,0,4.74,0,.92,0,1.84,0,2.75,0ZM0,.96h16.69c4.16,0,7.55,3.4,7.55,7.55,0,.22,0,.43-.03.65-1.91,0-3.82,0-5.73,0-1.52,0-3.04,0-4.56,0h0s-.1,0-.15,0c-5.7,0-10.47,4.76-10.73,10.44,0,.17-.01.33-.01.51v5c0,1.01,0,2.02,0,3.02H0V.96Z"/>
      <path class="cls-1" d="M119.43,9.68c-.04-.09-.87-2.12-2.5-6.08l-2.58,6.25h5.17l-.08-.16ZM112.76,14.18h-2.46l-.02-.02c.31-.05.56-.21.73-.46.18-.25.37-.5.57-.76.2-.24.67-1.16,1.39-2.74.73-1.58,1.28-2.81,1.66-3.69.99-2.43,1.85-4.6,2.56-6.51,1.82,4.33,3.61,8.45,5.39,12.37.2.54.46.96.77,1.26.31.3.65.48,1.02.53v.02l-3.15.02c-.58-1.53-1.04-2.72-1.38-3.56h-5.8l-1.28,3.54ZM108.96,14.18l-1.77-.02h-.35c-.54,0-1.17,0-1.89.02v-.02c.35-.05.63-.23.82-.54s.29-.73.29-1.27l-.02-3.7c0-.28-.03-.47-.1-.57-.07-.09-.22-.14-.47-.14h-7.02c-.3,0-.48.04-.55.11-.07.08-.1.26-.1.56l.02,3.74c0,.54.1.97.3,1.27.2.31.47.48.82.54v.02l-1.77-.02h-.35c-.54,0-1.17,0-1.89.02v-.02c.35-.05.63-.23.82-.54s.29-.73.29-1.27V3.13h-.02v-.02c0-.54-.1-.97-.29-1.27-.2-.31-.47-.49-.82-.54v-.02h4.05v.02c-.35.05-.63.25-.82.6-.2.35-.31.93-.34,1.74v2.58c0,.46.22.69.67.69h6.92c.27,0,.44-.03.51-.08.1-.1.14-.31.14-.65l.02-3.07h-.02v-.02c0-.54-.1-.97-.29-1.27-.2-.3-.47-.48-.82-.54v-.02h4.05v.02c-.35.05-.63.25-.82.6-.2.35-.31.93-.34,1.74v5.84l.02,2.89c0,.54.1.97.3,1.27s.47.48.82.54v.02ZM82.25,14.16c-.5-.79-2.33-3.62-5.49-8.48l.02,5.13v1.55c0,.54.1.97.29,1.27.2.31.47.48.82.54v.02h-3.38v-.02c.35-.05.63-.23.82-.54s.3-.73.3-1.27v-1.79l.06-7.47c0-.88-.01-1.53-.04-1.95h.06l7.08,10.17c.89-1.26,3.32-4.62,7.26-10.07v.02h.02l-.02.04.02,11.01c0,.54.1.97.3,1.27.2.3.47.48.82.54v.02l-1.77-.02h-.35c-.54,0-1.17,0-1.89.02v-.02c.35-.05.63-.23.83-.54.2-.31.3-.73.29-1.27l-.08-6.9-5.98,8.75v.02h-.02v-.02h.02ZM68.5,9.68c-.04-.09-.87-2.12-2.5-6.08l-2.58,6.25h5.17l-.08-.16ZM61.83,14.18h-2.46l-.02-.02c.31-.05.56-.21.73-.46.18-.25.37-.5.57-.76.2-.24.67-1.16,1.39-2.74.73-1.58,1.28-2.81,1.66-3.69.99-2.43,1.84-4.6,2.56-6.51,1.82,4.33,3.62,8.45,5.39,12.37.2.54.46.96.77,1.26.31.3.65.48,1.02.53v.02l-3.15.02c-.58-1.53-1.04-2.72-1.38-3.56h-5.8l-1.28,3.54ZM52.42,4.33c0-.87-.22-1.49-.67-1.87-.43-.39-1.13-.59-2.1-.59-.77,0-1.19.12-1.24.35-.01.05-.02.12-.02.2l-.06,4.96h.81c1.14,0,1.97-.29,2.49-.88.52-.59.78-1.31.78-2.17ZM49.51,14.2h-.02l-1.77-.02h-.45l-1.77.02v-.02c.62-.08.99-.56,1.1-1.42v-.08c.01-.07.02-.17.02-.31l.02-9.3h-.02v-.02c0-.54-.1-.97-.29-1.27-.2-.31-.47-.48-.82-.54v-.02l5.09-.04c1.11.04,1.99.27,2.64.69.8.52,1.2,1.28,1.2,2.3,0,1.34-.84,2.5-2.52,3.46-.19.05-.32.12-.39.2,2.65,3.84,5.2,5.92,7.67,6.25l.69.12-3.26.02c-1.33.01-2.49-.56-3.48-1.73-1.38-1.79-2.53-3.23-3.44-4.31-.6,0-1.06.03-1.38.1l.06,4.09c0,.54.1.97.29,1.27.2.31.47.48.82.54v.02ZM38.59,4.33c0-.87-.22-1.49-.67-1.87-.43-.39-1.13-.59-2.1-.59-.77,0-1.19.12-1.24.35-.01.05-.02.12-.02.2v4.31h.87c1.1,0,1.9-.19,2.4-.56.5-.37.75-.99.75-1.84ZM39.56,10.72c0-1.1-.37-1.93-1.1-2.48-.62-.48-1.44-.71-2.46-.71-.6,0-1.08.03-1.44.1v4.92c0,.64.66.96,1.97.96,2.02,0,3.03-.93,3.03-2.79ZM41.6,10.5c0,1.28-.5,2.23-1.49,2.87-.62.42-1.42.69-2.4.81h-4.27l-1.77.02v-.02c.35-.05.63-.23.82-.54s.3-.73.3-1.27l.02-9.3h-.02v-.02c0-.54-.1-.97-.3-1.27-.2-.31-.47-.48-.82-.54v-.02l5.09-.04c1.11.04,1.99.27,2.65.69.8.52,1.2,1.28,1.2,2.3,0,1.34-.82,2.28-2.46,2.81-.19.05-.18.1.02.14,2.29.39,3.44,1.52,3.44,3.38Z"/>
      <path class="cls-1" d="M120.84,20.88v-4.21h2.35v.58h-1.67v1.06h1.67v.6h-1.67v1.36h1.67v.61h-2.35ZM117.34,18.99v1.89h-.64v-4.21h.95c.28,0,.5.02.65.05.16.04.29.1.4.18.13.1.23.23.3.4.07.16.11.34.11.53,0,.34-.08.6-.24.79-.16.19-.4.31-.72.34l1.45,1.92h-.77l-1.4-1.89h-.08ZM117.39,18.46h.13c.36,0,.6-.04.72-.13.12-.08.18-.23.18-.45,0-.23-.06-.4-.19-.49-.13-.1-.36-.14-.71-.14h-.13v1.21ZM111.46,16.66h.68v2.56c0,.38.09.66.26.86.18.19.44.29.79.29s.61-.1.78-.29c.18-.19.26-.48.26-.86v-2.56h.68v2.62c0,.57-.14,1-.43,1.28-.29.28-.72.42-1.3.42s-1.01-.14-1.3-.42c-.29-.28-.43-.71-.43-1.28v-2.62ZM108.99,17.25v3.63h-.68v-3.63h-1.12v-.58h2.92v.58h-1.11ZM105.94,17.69c-.19-.16-.4-.29-.61-.37-.22-.08-.44-.12-.68-.12-.46,0-.83.15-1.12.44-.29.3-.43.68-.43,1.15s.14.83.42,1.13c.28.29.64.44,1.06.44.25,0,.49-.04.71-.13.23-.09.44-.22.65-.4v.77c-.18.13-.38.23-.6.3-.22.07-.45.1-.7.1-.32,0-.62-.05-.89-.16-.27-.11-.51-.26-.72-.47-.21-.2-.36-.44-.47-.71-.11-.27-.16-.57-.16-.87s.05-.6.16-.87c.11-.27.27-.51.48-.72.21-.21.45-.36.72-.47.27-.11.56-.16.88-.16.25,0,.48.04.71.11.23.07.44.18.65.33l-.04.69ZM97.32,16.66h.68v2.56c0,.38.09.66.26.86.18.19.44.29.79.29s.61-.1.78-.29c.18-.19.26-.48.26-.86v-2.56h.68v2.62c0,.57-.14,1-.43,1.28-.29.28-.72.42-1.3.42s-1.01-.14-1.3-.42c-.29-.28-.43-.71-.43-1.28v-2.62ZM93.83,18.99v1.89h-.64v-4.21h.95c.28,0,.5.02.65.05.15.04.29.1.4.18.13.1.23.23.3.4.07.16.11.34.11.53,0,.34-.08.6-.24.79-.16.19-.4.31-.72.34l1.45,1.92h-.77l-1.4-1.89h-.08ZM93.88,18.46h.12c.36,0,.6-.04.72-.13.12-.08.18-.23.18-.45,0-.23-.06-.4-.19-.49-.13-.1-.36-.14-.71-.14h-.12v1.21ZM90.71,17.25v3.63h-.68v-3.63h-1.12v-.58h2.92v.58h-1.11ZM85.03,20.03l.55-.25c.05.19.15.33.29.43.14.1.31.15.53.15.2,0,.37-.06.49-.17.12-.11.18-.26.18-.45,0-.25-.21-.47-.62-.66-.06-.03-.1-.05-.13-.06-.46-.23-.77-.43-.93-.61-.15-.18-.23-.41-.23-.67,0-.34.12-.62.35-.84.23-.21.54-.32.92-.32.31,0,.57.06.78.18.21.12.35.29.43.52l-.53.28c-.08-.13-.18-.23-.28-.29-.1-.06-.22-.09-.35-.09-.18,0-.33.05-.44.14-.11.1-.16.22-.16.39,0,.25.24.49.71.71.04.02.07.03.09.04.42.19.7.38.86.56.16.18.23.41.23.69,0,.4-.13.72-.38.95-.25.24-.59.35-1.02.35-.36,0-.65-.08-.88-.25-.23-.16-.38-.4-.45-.71ZM83.31,20.88l-.48-1.08h-1.67l-.49,1.08h-.72l2.04-4.38,2.04,4.38h-.72ZM81.42,19.22h1.17l-.43-.96c-.02-.06-.05-.13-.08-.21-.03-.08-.05-.17-.08-.27-.02.09-.05.18-.07.26-.03.08-.05.15-.08.22l-.43.96ZM77.03,18.99v1.89h-.64v-4.21h.95c.28,0,.5.02.65.05.16.04.29.1.4.18.13.1.23.23.3.4.07.16.11.34.11.53,0,.34-.08.6-.24.79-.16.19-.4.31-.72.34l1.45,1.92h-.77l-1.4-1.89h-.08ZM77.07,18.46h.13c.36,0,.6-.04.72-.13.12-.08.18-.23.18-.45,0-.23-.06-.4-.19-.49-.13-.1-.36-.14-.71-.14h-.13v1.21ZM72.45,20.88v-4.21h2.35v.58h-1.67v1.05h1.67v.6h-1.67v1.98h-.68ZM66.88,20.88v-4.38l2.68,2.57c.07.07.15.15.22.23.07.08.15.18.24.28v-2.92h.63v4.38l-2.73-2.62c-.07-.07-.14-.15-.21-.22-.07-.08-.13-.16-.19-.25v2.93h-.63ZM64.37,20.88v-4.21h.68v4.21h-.68ZM60.42,20.88l-.34-.4c-.2.17-.4.3-.61.38-.21.08-.44.12-.69.12-.39,0-.7-.11-.94-.34-.24-.22-.36-.51-.36-.87,0-.24.07-.46.22-.66.15-.2.39-.4.71-.61l-.17-.18c-.09-.1-.17-.21-.21-.33-.05-.12-.08-.24-.08-.37,0-.28.1-.5.3-.68.2-.18.46-.27.78-.27s.57.08.75.24c.19.16.28.38.28.65,0,.21-.07.39-.2.56-.13.17-.34.34-.62.51l.88,1.02c.08-.08.17-.18.26-.29.09-.11.18-.23.28-.37l.4.43c-.08.12-.16.24-.26.35-.09.11-.2.21-.31.31l.71.8h-.79ZM59.7,20.03l-.92-1.06-.11.07c-.2.13-.34.25-.42.36-.08.11-.12.23-.12.36,0,.19.06.34.19.47.13.13.29.19.49.19.14,0,.29-.03.44-.1.15-.07.3-.16.45-.3ZM58.94,18.19l.16-.09c.11-.06.19-.14.24-.22.05-.08.08-.18.08-.28,0-.12-.04-.22-.11-.29-.07-.07-.17-.11-.29-.11-.13,0-.23.04-.31.11-.08.08-.12.18-.12.3,0,.06.01.12.03.17.02.06.06.11.1.16l.21.25ZM52.57,20.88v-1.93l-1.42-2.29h.72l.88,1.43s.05.08.08.14c.03.06.06.12.1.19.03-.07.06-.13.09-.19.03-.06.06-.11.09-.16l.91-1.41h.68l-1.45,2.29v1.93h-.68ZM49.19,17.25v3.63h-.68v-3.63h-1.12v-.58h2.92v.58h-1.11ZM44.53,20.88v-4.21h.68v3.6h1.53v.61h-2.22ZM42.57,20.88l-.48-1.08h-1.67l-.49,1.08h-.72l2.04-4.38,2.04,4.38h-.72ZM40.68,19.22h1.17l-.43-.96c-.03-.06-.05-.13-.08-.21-.03-.08-.05-.17-.08-.27-.02.09-.05.18-.07.26-.02.08-.05.15-.08.22l-.43.96ZM35.81,20.88v-4.21h2.35v.58h-1.67v1.06h1.67v.6h-1.67v1.36h1.67v.61h-2.35ZM32.31,18.99v1.89h-.64v-4.21h.95c.28,0,.5.02.65.05.15.04.29.1.39.18.13.1.23.23.3.4.07.16.11.34.11.53,0,.34-.08.6-.24.79-.16.19-.4.31-.72.34l1.45,1.92h-.77l-1.4-1.89h-.08ZM32.35,18.46h.12c.36,0,.6-.04.72-.13.12-.08.18-.23.18-.45,0-.23-.06-.4-.19-.49-.13-.1-.36-.14-.71-.14h-.12v1.21Z"/>
      <path class="cls-1" d="M122.33,28.01v-1.29l-.95-1.53h.48l.59.96s.03.06.05.1c.02.04.04.08.06.13.02-.05.04-.09.06-.13.02-.04.04-.08.06-.11l.61-.95h.46l-.97,1.53v1.29h-.45ZM118.74,25.58v2.43h-.46v-2.43h-.75v-.39h1.95v.39h-.75ZM114.3,28.01v-2.82h.46v2.41h1.03v.41h-1.48ZM111.66,28.01l-.32-.73h-1.12l-.33.73h-.48l1.37-2.93,1.36,2.93h-.48ZM110.39,26.9h.79l-.29-.64s-.03-.09-.05-.14c-.02-.05-.04-.11-.05-.18-.02.06-.03.12-.05.17-.02.05-.04.1-.05.15l-.29.64ZM105.81,28.01v-2.82h1.57v.39h-1.12v.71h1.12v.4h-1.12v.91h1.12v.41h-1.57ZM102.14,26.75v1.26h-.43v-2.82h.64c.19,0,.33.01.44.04.1.02.19.06.26.12.09.07.15.16.2.26.05.11.07.23.07.35,0,.23-.06.4-.16.53-.11.13-.27.2-.48.23l.97,1.28h-.52l-.94-1.26h-.05ZM102.16,26.39h.08c.24,0,.4-.03.48-.08.08-.06.12-.16.12-.3,0-.16-.04-.26-.13-.33-.08-.06-.24-.1-.48-.1h-.08v.81ZM98.1,26.6c0,.2-.04.39-.11.57-.08.18-.18.34-.33.48-.14.14-.31.25-.49.32-.18.07-.37.11-.57.11s-.4-.04-.58-.11c-.18-.08-.35-.18-.49-.32-.14-.14-.25-.3-.33-.48-.07-.18-.11-.37-.11-.57s.04-.39.11-.57c.07-.18.18-.34.33-.48.14-.14.31-.25.49-.32.18-.07.38-.11.58-.11s.4.04.58.11c.18.07.34.18.49.32.14.14.25.3.33.48.07.18.11.37.11.57ZM97.62,26.6c0-.14-.03-.28-.08-.41-.05-.13-.13-.24-.22-.34-.1-.1-.21-.18-.33-.23-.13-.05-.26-.08-.4-.08s-.27.03-.4.08c-.12.05-.24.13-.33.23-.1.1-.17.21-.22.34-.05.13-.08.27-.08.41s.02.28.08.4c.05.13.13.24.22.34.1.1.21.18.33.23.12.05.26.08.4.08s.27-.03.39-.08c.12-.05.24-.13.33-.23.1-.1.17-.21.22-.34.05-.13.08-.26.08-.4ZM92.36,25.58v2.43h-.46v-2.43h-.75v-.39h1.95v.39h-.75ZM86.04,27.44l.37-.17c.03.13.1.22.19.29.09.07.21.1.35.1.14,0,.24-.04.33-.11.08-.08.12-.18.12-.3,0-.17-.14-.31-.41-.44-.04-.02-.07-.03-.09-.04-.31-.15-.52-.29-.62-.41-.1-.12-.16-.27-.16-.45,0-.23.08-.42.23-.56.16-.14.36-.21.61-.21.21,0,.38.04.52.12.14.08.24.2.29.34l-.36.19c-.06-.09-.12-.15-.19-.19-.07-.04-.14-.06-.23-.06-.12,0-.22.03-.29.1-.07.06-.11.15-.11.26,0,.17.16.33.48.47.03.01.04.02.06.03.28.13.47.25.57.38.1.12.16.28.16.46,0,.27-.08.48-.25.64-.17.16-.4.24-.68.24-.24,0-.44-.05-.59-.17-.15-.11-.25-.27-.3-.47ZM83.21,26.62s-.01-.08-.03-.18c-.01-.08-.02-.15-.03-.21-.01.06-.03.13-.05.19-.02.06-.05.13-.08.2l-.74,1.5-.74-1.53c-.03-.06-.06-.12-.08-.18-.02-.06-.04-.12-.06-.18,0,.06,0,.12-.01.19,0,.06-.02.13-.04.2l-.3,1.39h-.42l.67-2.94.83,1.78s.03.07.06.14c.03.07.06.15.1.24.03-.08.07-.18.13-.31.02-.03.03-.06.03-.08l.81-1.78.68,2.94h-.43l-.31-1.39ZM78.27,28.01l-.32-.73h-1.12l-.33.73h-.48l1.37-2.93,1.36,2.93h-.48ZM77,26.9h.79l-.29-.64s-.03-.09-.05-.14c-.02-.05-.04-.11-.05-.18-.02.06-.03.12-.05.17-.02.05-.03.1-.05.15l-.29.64ZM72.42,28.01v-2.82h1.57v.39h-1.12v.71h1.12v.4h-1.12v.91h1.12v.41h-1.57ZM68.75,26.75v1.26h-.43v-2.82h.64c.19,0,.33.01.44.04.1.02.19.06.26.12.09.07.15.16.2.26.05.11.07.23.07.35,0,.23-.06.4-.16.53-.11.13-.27.2-.48.23l.97,1.28h-.52l-.94-1.26h-.05ZM68.77,26.39h.08c.24,0,.4-.03.48-.08.08-.06.12-.16.12-.3,0-.16-.04-.26-.13-.33-.09-.06-.24-.1-.48-.1h-.08v.81ZM63.51,28.01v-2.82h.62c.4,0,.68.02.85.06.16.04.31.11.43.2.16.13.29.29.37.48.08.19.13.42.13.67s-.04.47-.13.67c-.08.19-.21.35-.37.48-.12.1-.26.16-.42.2-.16.04-.4.06-.73.06h-.74ZM63.96,27.59h.39c.21,0,.37-.01.48-.04.11-.03.2-.08.28-.14.11-.09.19-.2.24-.34.05-.14.08-.29.08-.47s-.03-.34-.08-.47c-.05-.14-.13-.25-.24-.34-.08-.07-.18-.11-.29-.14-.11-.03-.29-.04-.52-.04h-.33v2ZM58.82,26.57h1.12s0,.05,0,.08c0,.09,0,.15,0,.18,0,.4-.11.71-.34.92-.23.22-.55.33-.96.33-.23,0-.44-.03-.62-.1-.18-.07-.34-.17-.48-.31-.13-.14-.24-.3-.31-.48s-.11-.38-.11-.59.04-.41.11-.59c.07-.18.18-.34.32-.48.14-.13.3-.24.48-.31.18-.07.38-.11.59-.11.22,0,.42.04.6.12s.33.21.47.37l-.33.25c-.1-.11-.2-.19-.32-.25-.12-.05-.25-.08-.4-.08-.31,0-.55.1-.75.29-.19.2-.29.45-.29.76s.1.58.29.78c.19.2.44.3.75.3.26,0,.47-.06.62-.18.15-.12.23-.29.23-.5v-.04h-.68v-.39ZM52.2,28.01v-2.93l1.79,1.72s.1.1.15.16c.05.05.1.12.16.19v-1.96h.42v2.93l-1.83-1.76s-.1-.1-.14-.15c-.05-.05-.09-.11-.13-.17v1.96h-.42ZM49.19,28.01v-2.82h.46v2.82h-.46ZM45.62,26.74v1.27h-.43v-2.82h.69c.21,0,.36.01.45.03.1.02.18.06.25.11.09.06.16.15.21.26.05.11.07.23.07.37s-.02.26-.07.37c-.05.11-.12.2-.21.26-.07.05-.16.09-.25.11-.1.02-.25.03-.45.03h-.26ZM45.65,26.37h.12c.26,0,.42-.03.51-.08.08-.05.13-.15.13-.29,0-.15-.05-.26-.14-.32-.09-.06-.26-.09-.5-.09h-.12v.79ZM42.55,28.01l-.32-.73h-1.12l-.33.73h-.48l1.37-2.93,1.37,2.93h-.48ZM41.28,26.9h.79l-.29-.64s-.03-.09-.05-.14c-.02-.05-.04-.11-.05-.18-.02.06-.03.12-.05.17-.02.05-.03.1-.05.15l-.29.64ZM35.85,28.01v-2.82h.46v1.04h1.39v-1.04h.46v2.82h-.46v-1.37h-1.39v1.37h-.46ZM31.63,27.44l.37-.17c.03.13.1.22.19.29.09.07.21.1.35.1.14,0,.24-.04.33-.11.08-.08.12-.18.12-.3,0-.17-.14-.31-.41-.44-.04-.02-.07-.03-.09-.04-.31-.15-.52-.29-.62-.41s-.16-.27-.16-.45c0-.23.08-.42.23-.56.16-.14.36-.21.61-.21.21,0,.38.04.52.12.14.08.24.2.29.34l-.36.19c-.06-.09-.12-.15-.19-.19-.07-.04-.14-.06-.23-.06-.12,0-.22.03-.29.1-.07.06-.11.15-.11.26,0,.17.16.33.48.47.02.01.04.02.06.03.28.13.47.25.57.38.1.12.16.28.16.46,0,.27-.08.48-.25.64-.17.16-.4.24-.68.24-.24,0-.44-.05-.59-.17-.15-.11-.25-.27-.3-.47Z"/>
      <rect class="cls-2" x="31.19" y="23.05" width="92.31" height=".14"/>
    </g>
  </g>
</svg>