<?xml version="1.0" encoding="UTF-8"?>
<svg id="Layer_2" data-name="Layer 2" xmlns="http://www.w3.org/2000/svg" viewBox="0 0 156.23 26.35">
  <defs>
    <style>
      .cls-1 {
        fill: #afafaf;
      }
    </style>
  </defs>
  <g id="Layer_1-2" data-name="Layer 1">
    <g>
      <path class="cls-1" d="M89.54,26.35c-1.27-.23-2.55-.39-3.74-.92-.61-.27-1.17-.6-1.71-.98-.32-.22-.38-.46-.15-.79.48-.69.95-1.39,1.41-2.1.25-.4.47-.33.83-.11,2.38,1.41,4.82,1.32,7.25.14,1.35-.65,2.08-1.8,2.22-3.36-.3-.03-.46.21-.66.34-1.56,1.03-3.26,1.63-5.15,1.4-3.12-.39-4.95-2.34-5.21-5.47-.28-3.43,2.1-7.36,5.28-8.73,3-1.28,5.63-.72,7.94,1.72.24-.42.25-.9.34-1.35.09-.43.28-.65.74-.63.71.02,1.43-.02,2.14.01,1.02.05,1.63.83,1.43,1.83-.84,4.09-1.66,8.18-2.56,12.25-.76,3.44-3.12,5.36-6.4,6.3-.78.22-1.6.31-2.4.46h-1.58ZM92.16,16.11c2.23-.03,4.22-1.6,4.71-3.73.38-1.65-.32-2.98-1.73-3.29-2.49-.55-5.21,1.19-5.73,3.67-.45,2.12.58,3.38,2.75,3.36Z"/>
      <path class="cls-1" d="M136.27,26.35c-.28-.41-.21-.85-.12-1.29,1.24-5.93,2.47-11.87,3.72-17.8.35-1.68.87-2.08,2.61-2.09.69,0,1.37,0,2.06,0,.48,0,.95-.05,1.12.6.12.43.39.08.55,0,.85-.45,1.73-.77,2.69-.9,3.53-.45,6.2,1.31,7.17,4.72.05.18.11.35.17.52v2.84c-.05.2-.1.41-.14.61-.49,2.3-1.55,4.27-3.27,5.9-2.63,2.5-7.44,3.14-9.72.73-.31-.33-.44-.12-.51.2-.15.69-.26,1.39-.44,2.08-.34,1.29-.38,2.65-.97,3.87h-4.91ZM151.93,12.07c.02-2.22-1.31-3.54-3.53-3.51-2.84.04-5.3,2.66-5.49,5.71-.18,2.8,2.13,4.05,4.33,3.6,2.65-.54,4.66-3.05,4.69-5.81Z"/>
      <path class="cls-1" d="M18.78,9.22c-.05,0-.11,0-.16,0-1.6.23-2.7-.2-3.61-1.74-1.07-1.8-3.01-2.25-5.07-2.07-.43.04-.52.23-.42.63.74,3.06.76,6.13.01,9.2-.12.5.05.65.53.69,2.39.22,4.4-.79,5.51-2.89.38-.72.93-1.03,1.71-1.03,1.06,0,2.11.03,3.17,0,.71-.02.85.25.71.9-1.67,7.68-10.86,11.11-17.19,6.06C.4,16.12-.92,11.32.65,7.03,2.21,2.78,6.33-.05,10.85.01c4.9.07,9.24,3.61,10.29,8.38.15.69-.01.9-.7.84-.55-.05-1.11-.01-1.66-.01ZM6.08,7c-.45,0-.89,0-1.34,0-.05,0-.11,0-.16,0-.81.07-1.3.54-1.35,1.27-.06.88.33,1.43,1.19,1.56,1.07.17,2.16.13,3.23.03.82-.08,1.14-.59,1.09-1.53-.05-.84-.45-1.29-1.24-1.34-.47-.03-.95,0-1.42,0ZM6,11.4h0c-.53,0-1.05-.02-1.58.02-.78.06-1.2.56-1.2,1.37,0,.83.39,1.34,1.18,1.38,1.07.06,2.15.06,3.23.02.81-.03,1.11-.45,1.11-1.31,0-.92-.38-1.42-1.17-1.47-.52-.03-1.05,0-1.58,0Z"/>
      <path class="cls-1" d="M132.4,21.35c-.58,0-1.16,0-1.74,0-.21,0-.53.02-.6-.1-.46-.73-.92-.24-1.41-.07-2.15.77-4.27.87-6.17-.59-1.81-1.39-2.13-3.37-1.72-5.48.53-2.78,1.13-5.55,1.73-8.32.23-1.07.92-1.6,2.03-1.62.82-.01,1.64-.01,2.45,0,.96,0,1.13.21.93,1.14-.54,2.59-1.09,5.18-1.64,7.78-.05.26-.09.52-.13.78-.27,1.63.5,2.38,2.09,2.02,1.6-.36,2.58-1.32,2.91-2.95.52-2.57,1.1-5.13,1.59-7.71.15-.81.51-1.14,1.33-1.06.52.05,1.05,0,1.58.01,1.82.01,2.58.96,2.21,2.75-.63,3.03-1.27,6.06-1.9,9.09-.25,1.18-.51,2.36-.74,3.54-.11.56-.4.82-.98.8-.61-.02-1.21,0-1.82,0Z"/>
      <path class="cls-1" d="M67.47,19.37c-1.27,1.05-2.56,1.75-4.07,2.04-3.62.69-6.84-1.76-7.17-5.42-.41-4.46,2.2-8.6,5.5-10.1,1.61-.73,3.28-.98,5.01-.52,1.3.35,2.26,1.19,3.07,2.31.29-.45.32-.87.38-1.27.09-.64.36-.99,1.09-.92.63.06,1.27,0,1.9.02,1.01.05,1.6.77,1.4,1.76-.91,4.42-1.84,8.84-2.76,13.25-.1.46-.35.66-.83.65-1.03-.02-2.06-.02-3.09,0-.63.01-.8-.26-.62-.83.08-.27.11-.55.19-.97ZM65.84,9.02c-3.38-.05-5.57,3.49-5.19,6.19.21,1.52,1.37,2.43,2.93,2.44,2.7.02,5.24-2.57,5.34-5.45.07-1.96-1.12-3.18-3.07-3.18Z"/>
      <path class="cls-1" d="M46.48,6.69c1.2-.88,2.48-1.42,3.95-1.55,3.44-.29,5.93,2.24,5.35,5.63-.57,3.26-1.32,6.48-1.97,9.72-.11.53-.39.68-.88.67-.92-.02-1.85-.03-2.77,0-.69.03-.88-.21-.73-.88.58-2.61,1.12-5.24,1.66-7.86.15-.71.34-1.43.08-2.17-.25-.72-.72-1.14-1.48-1.23-2.06-.24-4.06,1.09-4.51,3.12-.6,2.66-1.15,5.34-1.67,8.02-.15.77-.47,1.07-1.26,1.01-.84-.06-1.69,0-2.53-.02-.89,0-.97-.1-.79-.96.76-3.7,1.53-7.4,2.3-11.1.52-2.49,1.04-4.99,1.56-7.48.25-1.19.73-1.6,1.95-1.62.71,0,1.43.01,2.14,0,.61-.01.78.22.65.82-.39,1.74-.73,3.49-1.09,5.24-.04.18-.12.35.06.63Z"/>
      <path class="cls-1" d="M109.03,14.86c-.69,0-1.37,0-2.06,0-.45,0-.59.17-.52.63.19,1.19.95,1.89,2.29,1.98,1.47.1,2.83-.3,4.04-1.12.49-.33.75-.28,1.08.19.53.75,1.11,1.46,1.68,2.19.2.26.29.49-.02.74-2.5,2.04-8.08,3.14-11.15.52-2.01-1.71-2.51-3.97-2.12-6.43.78-4.87,4.39-8.13,9.33-8.41,1.8-.1,3.54.28,4.92,1.57,1.87,1.75,1.6,4.94-.52,6.58-1.56,1.21-3.41,1.46-5.3,1.56-.55.03-1.11,0-1.66,0h0ZM109.69,11.5c.89-.03,1.9.12,2.85-.32.44-.2.75-.5.71-1.02-.04-.49-.38-.74-.79-.89-1.44-.52-4.07.47-4.84,1.8-.17.3-.14.43.22.43.58,0,1.16,0,1.85,0Z"/>
      <path class="cls-1" d="M31.91,21.51c-4.72,0-7.93-3.85-7.06-8.46.97-5.12,6.76-8.92,11.77-7.71,1.37.33,2.53,1.01,3.51,2.02.39.4.47.7-.08,1.05-.78.49-1.52,1.04-2.29,1.56-.22.15-.41.26-.71.06-2.18-1.45-4.14-1.34-6.09.39-1.19,1.05-1.9,2.38-1.9,4.01,0,2.18,1.77,3.6,3.92,3.17.9-.18,1.71-.54,2.41-1.13.38-.32.66-.31,1,.06.56.62,1.15,1.23,1.76,1.81.43.41.31.68-.1,1-1.81,1.4-3.83,2.17-6.14,2.18Z"/>
      <path class="cls-1" d="M80.39,7.55c.41-.07.54-.36.74-.54,1.2-1.07,2.58-1.71,4.19-1.84.48-.04.7.07.62.59-.13.91-.23,1.82-.35,2.73-.07.55-.51.52-.9.55-1.65.14-3.04.81-4.19,1.99-.85.88-1.29,1.96-1.53,3.14-.41,2.03-.87,4.05-1.25,6.09-.13.71-.46.96-1.17.93-.95-.05-1.9-.02-2.85-.01-.52,0-.71-.2-.6-.73.96-4.52,1.89-9.04,2.86-13.56.23-1.05.69-1.37,1.8-1.38.77,0,1.53.01,2.3,0,.53,0,.72.21.6.73-.1.42-.17.86-.26,1.33Z"/>
    </g>
  </g>
</svg>