<?xml version="1.0" encoding="UTF-8"?>
<svg id="Layer_2" data-name="Layer 2" xmlns="http://www.w3.org/2000/svg" viewBox="0 0 146.72 32.77">
  <defs>
    <style>
      .cls-1 {
        fill: #b2aead;
      }
    </style>
  </defs>
  <g id="Layer_1-2" data-name="Layer 1">
    <g>
      <path class="cls-1" d="M.03,16.18C-.61,7.44,7.83-.14,16.84,0c7.92.13,15.93,7.25,15.87,16.67-.06,8.6-7.46,16.25-16.61,16.09C7.54,32.62-.45,25.34.03,16.18ZM18.82,17.62h0c2.16,0,4.33-.04,6.49,0,.85.02,1.15-.35,1.2-1.12.05-.82-.01-1.63-.14-2.44-1.16-7.37-8.8-10.98-15.18-7.1-4,2.43-5.71,6.24-5.3,10.89.25,2.78,1.41,5.14,3.79,6.81,2.77,1.94,5.86,2.38,9.11,1.99,1.92-.23,3.76-.84,5.47-1.77.58-.32.74-.66.34-1.25-.38-.55-.72-1.14-.99-1.75-.31-.69-.7-.78-1.38-.49-2.05.87-4.15,1.25-6.4.83-2.03-.38-3.48-1.4-4.31-3.29-.42-.96-.21-1.3.84-1.3,2.16-.01,4.32,0,6.49,0Z"/>
      <path class="cls-1" d="M120.69,16.39c0-2.19,0-4.38,0-6.58,0-1.25.07-1.32,1.36-1.32.99,0,1.99,0,2.98,0,.43,0,.84.04.95.57.11.51.35.3.62.13,2.99-1.82,5.75-1.56,8.31.8.41.37.62.31,1-.04,2.24-2.07,5.32-2.57,7.77-1.18,1.9,1.08,3.04,2.67,3.03,4.97-.02,3.16-.02,6.31.01,9.47,0,.8-.26,1.12-1.06,1.08-1.02-.04-2.05-.03-3.07,0-.75.02-1.05-.3-1.04-1.04.02-2.57.03-5.14,0-7.72-.03-2.02-1.44-3.04-3.27-2.44-.62.2-1.04.63-1.34,1.19-.35.67-.44,1.38-.44,2.12,0,2.28-.02,4.56,0,6.84,0,.75-.28,1.07-1.03,1.05-1.11-.03-2.22-.03-3.33,0-.71.02-.99-.24-.97-.98.04-2.22.03-4.44.02-6.66,0-.61-.05-1.23-.16-1.83-.19-1.11-.87-1.71-2.02-1.87-1.04-.15-2.02.35-2.47,1.27-.4.83-.54,1.72-.54,2.64,0,2.1-.03,4.21,0,6.31.01.84-.32,1.16-1.14,1.12-.99-.04-1.99,0-2.98-.01-1.08,0-1.18-.12-1.18-1.24,0-2.22,0-4.44,0-6.66Z"/>
      <path class="cls-1" d="M51.54,17.81c-1.58,0-3.15.02-4.73,0-.67-.01-.73.21-.47.77.95,2.04,3.87,2.5,5.36.74.54-.63,1.04-.7,1.75-.51.87.23,1.77.37,2.65.55.75.15.87.39.51,1.09-1.77,3.44-5.71,5.09-9.72,4.01-5.89-1.59-7.8-8.29-4.64-12.94,1.89-2.79,5.5-4.04,8.83-3.23,3.3.8,5.58,3.37,6.1,6.89.48,3.26.02,2.6-2.24,2.64-1.14.02-2.28,0-3.42,0h0ZM49.08,14.43h0c.73,0,1.46,0,2.19,0,.46,0,.69-.13.38-.62-.56-.9-1.4-1.3-2.43-1.29-1.04,0-1.96.28-2.6,1.18-.31.45-.21.71.36.72.7.01,1.4,0,2.1,0Z"/>
      <path class="cls-1" d="M110.29,8.12c4.9.01,8.74,3.65,8.64,8.34-.1,4.71-3.57,8.24-8.56,8.27-5.3.03-8.84-3.74-8.81-8.37.03-4.71,3.76-8.25,8.73-8.24ZM113.69,16.4c0-2.19-1.41-3.7-3.44-3.7-2.08,0-3.5,1.51-3.54,3.73-.03,2.1,1.46,3.64,3.52,3.64,2.05,0,3.46-1.5,3.45-3.68Z"/>
      <path class="cls-1" d="M60.31,24.28c-.7,0-1.4.02-2.1,0-.78-.03-.91-.33-.47-.98,1.33-1.96,2.64-3.93,4-5.86.4-.57.47-.97.04-1.62-1.42-2.1-2.75-4.27-4.11-6.42-.39-.62-.25-.89.51-.91,1.43-.02,2.86,0,4.3-.01.58,0,.91.3,1.19.75.62,1.03,1.26,2.04,1.88,3.06.35.58.64.59.99,0,.61-1.03,1.26-2.04,1.88-3.06.3-.49.69-.76,1.28-.75,1.4.02,2.81,0,4.21,0,.82,0,.95.25.51.95-1.32,2.07-2.63,4.15-4,6.18-.5.73-.53,1.28.01,2.02,1.32,1.79,2.54,3.64,3.8,5.47.18.26.46.51.3.86-.18.41-.59.31-.93.31-1.26,0-2.51-.02-3.77.01-.66.01-1.1-.24-1.45-.79-.59-.94-1.24-1.84-1.83-2.78-.32-.51-.56-.7-.96-.04-.56.92-1.24,1.78-1.79,2.7-.41.69-.94.97-1.73.91-.58-.05-1.17,0-1.75,0h0Z"/>
      <path class="cls-1" d="M84.2,16.5c-.23-3.97,2.72-7.62,7.08-8.37,3.82-.66,7.76,1.44,9.23,5.08.33.82.21,1.11-.64,1.33-1.1.29-2.21.53-3.32.81-.43.11-.78.04-.9-.42-.51-1.87-2.59-2.6-4.32-1.89-1.53.63-2.41,2.56-1.92,4.43.4,1.5,1.49,2.41,3.08,2.56,1.32.13,2.52-.58,3.15-1.91.25-.54.58-.75,1.17-.61,1.02.24,2.05.45,3.08.65.79.15.91.59.66,1.27-.93,2.5-2.68,4.16-5.21,4.94-3.71,1.15-7.57-.17-9.79-3.27-1-1.4-1.48-2.97-1.36-4.59Z"/>
      <path class="cls-1" d="M76.81,16.39c0-2.31.02-4.61-.01-6.92-.01-.74.3-1,.99-.99,1.11.02,2.22.02,3.33,0,.72-.01,1,.33,1,1.01,0,4.58,0,9.17,0,13.75,0,.72-.29,1.08-1.05,1.05-1.02-.03-2.04,0-3.06,0-1.05,0-1.17-.12-1.17-1.15,0-2.25,0-4.5,0-6.74,0,0-.01,0-.02,0Z"/>
      <path class="cls-1" d="M79.45,7.12c-1.73,0-3.05-1.28-3.04-2.93.01-1.61,1.44-3.02,3.04-2.99,1.69.03,3.06,1.42,3.04,3.09-.02,1.6-1.35,2.84-3.04,2.83Z"/>
      <path class="cls-1" d="M16.23,14.27c-1.14,0-2.28.02-3.42,0-.76-.02-.93-.32-.66-1.02.98-2.57,4.08-3.81,6.53-2.55,1.06.55,1.67,1.53,1.87,2.72.1.62-.25.85-.81.85-1.17,0-2.34,0-3.51,0h0Z"/>
    </g>
  </g>
</svg>