<?xml version="1.0" encoding="UTF-8"?>
<svg id="Layer_2" data-name="Layer 2" xmlns="http://www.w3.org/2000/svg" viewBox="0 0 60.9 60.89">
  <defs>
    <style>
      .cls-1 {
        fill: #b2aead;
      }
    </style>
  </defs>
  <g id="Layer_1-2" data-name="Layer 1">
    <g>
      <path class="cls-1" d="M45.25,17.18c-1.94,0-3.87,0-5.81,0-.32,0-.47.11-.57.4-1.27,3.51-2.55,7.02-3.83,10.53-1.75,4.8-3.5,9.61-5.24,14.41-1.51,4.16-3.03,8.31-4.54,12.47-.58,1.58-1.16,3.16-1.72,4.75-.1.28-.23.32-.49.25-3.03-.77-5.88-1.96-8.54-3.6-4.61-2.86-8.23-6.68-10.83-11.45-1.84-3.37-2.96-6.96-3.45-10.76-.22-1.74-.28-3.48-.19-5.23.26-4.96,1.62-9.59,4.14-13.89,1.54-2.62,3.42-4.97,5.66-7.02,3.45-3.16,7.41-5.43,11.9-6.77.14-.04.32-.18.44-.05.1.11-.05.27-.1.41-2.56,7.05-5.12,14.1-7.69,21.15-2.47,6.79-4.95,13.58-7.42,20.37-.23.63-.23.56.41.56,1.8,0,3.6,0,5.4,0,.29,0,.43-.09.53-.37,2.19-6.05,4.4-12.09,6.6-18.14.46-1.26.93-2.52,1.38-3.79.09-.24.22-.32.47-.32,1.39,0,2.77,0,4.16,0,.35,0,.37.03.24.37-2.24,6.15-4.48,12.31-6.73,18.46-.42,1.15-.84,2.31-1.26,3.46-.09.24-.03.31.22.32,1.9.05,3.81.04,5.71.04.25,0,.37-.09.46-.33,1.78-4.92,3.58-9.85,5.37-14.77.69-1.9,1.38-3.8,2.08-5.69.35-.93.54-1.88.35-2.86-.31-1.58-1.56-2.65-3.23-2.88-.54-.07-1.08-.06-1.62-.06-1.44,0-2.88,0-4.32,0-.35,0-.36-.02-.25-.34,1.35-3.72,2.71-7.44,4.06-11.16.64-1.77,1.29-3.54,1.93-5.31.08-.22.17-.35.44-.36,3.6-.11,7.12.36,10.54,1.49,3.81,1.25,7.24,3.18,10.28,5.78,3.3,2.82,5.89,6.18,7.75,10.1,1.46,3.05,2.37,6.27,2.75,9.63.19,1.64.24,3.27.16,4.91-.18,3.83-1.06,7.51-2.64,11.01-1.23,2.73-2.83,5.23-4.79,7.49-2.4,2.75-5.21,5.02-8.42,6.77-3.1,1.69-6.39,2.8-9.87,3.35-1.74.27-3.49.39-5.25.34-.33,0-.36-.04-.25-.35,1.02-2.79,2.03-5.59,3.05-8.38.97-2.66,1.95-5.33,2.9-8,.12-.33.29-.43.62-.43,2.66.01,5.31-.03,7.97.02,1.52.03,3.27-1.12,3.81-2.63,1.2-3.36,2.44-6.7,3.66-10.05.99-2.7,1.96-5.41,2.96-8.11.32-.88.53-1.77.37-2.7-.29-1.64-1.59-2.81-3.26-3-1-.11-2.01-.05-3.01-.06-1.15-.01-2.31,0-3.46,0Z"/>
      <path class="cls-1" d="M39.68,39.79c-.69,0-1.38,0-2.06,0-.38,0-.4-.03-.26-.41.93-2.55,1.85-5.09,2.78-7.64,1.22-3.36,2.45-6.72,3.67-10.08.2-.55.19-.55.78-.55,1.29,0,2.58,0,3.87,0,.42,0,.43.02.29.41-1.18,3.24-2.36,6.48-3.54,9.72-.97,2.66-1.94,5.33-2.91,7.99-.2.55-.2.55-.78.55-.61,0-1.23,0-1.84,0Z"/>
    </g>
  </g>
</svg>