<?xml version="1.0" encoding="UTF-8"?>
<svg id="Layer_2" data-name="Layer 2" xmlns="http://www.w3.org/2000/svg" viewBox="0 0 115.77 45.73">
  <defs>
    <style>
      .cls-1 {
        fill: #b2aead;
      }
    </style>
  </defs>
  <g id="Layer_1-2" data-name="Layer 1">
    <g>
      <path class="cls-1" d="M41.35,15.86c.46-.27.81-.17,1.16-.17.81,0,1.62-.02,2.43-.02.14,0,.32-.02.34.16.02.14-.12.2-.23.22-.8.15-.9.76-.9,1.41,0,2.88,0,5.77,0,8.65,0,1.16.15,1.35,1.19,1.73.13.05.33.03.3.22-.03.22-.24.2-.4.18-1.07-.14-2.14-.1-3.21,0-.18.02-.44.07-.49-.17-.05-.22.2-.22.35-.27.57-.22.78-.69.79-1.25.02-1.31,0-2.62.02-3.93,0-.41-.2-.56-.56-.56-1.84,0-3.67.02-5.51.02-.46,0-.62.24-.61.67.02,1.12,0,2.24.02,3.36.02,1.11.2,1.33,1.28,1.63.15.04.38.04.37.26-.02.27-.27.23-.44.21-1.17-.12-2.33-.12-3.49,0-.18.02-.43.09-.46-.18-.02-.21.23-.25.36-.27.74-.13.86-.7.87-1.29.03-1.95.04-3.91.05-5.86,0-1,.01-2,0-3,0-1.02-.22-1.3-1.16-1.62-.16-.06-.44-.03-.36-.31.06-.2.28-.14.44-.12,1.09.15,2.18.18,3.28.02.15-.02.37-.05.42.17.04.17-.15.23-.28.27-.74.21-.89.76-.88,1.44.02,1.02.02,2.05,0,3.07-.01.53.17.79.74.78,1.74-.02,3.48-.01,5.22,0,.52,0,.73-.2.71-.72-.02-.76,0-1.53,0-2.29,0-1.03.16-2.15-1.35-2.46Z"/>
      <path class="cls-1" d="M7.13,15.83c.09-.21.28-.15.43-.16,1.07,0,2.14,0,3.21,0,.14,0,.31-.04.37.13.06.15-.08.21-.18.25-1.62.64-2.75,1.93-4.03,3.02-.72.62-1.4,1.29-2.12,1.92-.38.33-.44.59-.05.99,1.55,1.58,3.06,3.2,4.6,4.79.45.47.99.81,1.64.95.19.04.52.05.45.33-.06.26-.36.14-.56.14-.17,0-.34-.08-.5-.04-1.4.38-2.19-.48-3.02-1.38-1.21-1.31-2.47-2.58-3.72-3.86-.14-.14-.26-.4-.51-.3-.2.09-.13.34-.13.52,0,1.05-.02,2.1.01,3.14.03,1.01.22,1.21,1.19,1.5.18.05.54-.02.5.27-.05.33-.39.16-.6.15-1.05-.03-2.09-.09-3.14.02-.2.02-.5.1-.56-.17-.06-.25.25-.23.41-.29.56-.23.68-.72.69-1.22.03-1.57.04-3.14.04-4.72,0-1.41.02-2.81-.01-4.22-.02-1.03-.19-1.21-1.15-1.52-.16-.05-.44-.04-.38-.31.04-.19.28-.12.44-.12,1.02,0,2.05,0,3.07.02.17,0,.43-.1.49.16.04.19-.17.26-.32.32-.45.2-.63.57-.63,1.03-.02,1.26-.04,2.52-.05,3.79,0,.14,0,.32.15.37.15.06.26-.09.36-.18,1.35-1.21,2.69-2.42,4.03-3.64.14-.13.26-.28.36-.44.3-.46.24-.81-.33-.98-.18-.05-.38-.07-.43-.3Z"/>
      <path class="cls-1" d="M75.48,15.92c-1.14.23-1.1,1.06-1.11,1.89-.01,3.07-.04,6.15-.06,9.22,0,.21,0,.43,0,.64-.01.21.04.47-.21.56-.25.1-.39-.12-.53-.28-.91-1.04-1.82-2.08-2.73-3.12-1.54-1.76-3.07-3.51-4.62-5.26-.13-.15-.26-.43-.49-.33-.23.09-.14.38-.14.59,0,2.12,0,4.24,0,6.36,0,1.08.12,1.22,1.15,1.58.15.05.38.06.35.28-.03.22-.25.19-.41.17-.97-.11-1.95-.09-2.93-.04-.14,0-.32.04-.37-.12-.08-.23.15-.27.29-.32.71-.26,1.1-.78,1.11-1.51.06-2.52.12-5.05-.02-7.57-.07-1.32-.59-2.4-2.1-2.73.67-.47,1.97-.35,2.44.18,2.18,2.46,4.35,4.93,6.52,7.39.58.66,1.16,1.31,1.77,1.99.08-.11.15-.16.15-.21,0-2.5.12-5-.08-7.5-.09-1.08-.34-1.35-1.37-1.64-.19-.05-.5-.01-.46-.31.04-.24.31-.15.49-.14.95.02,1.9.09,2.85-.04.14-.02.29,0,.49.28Z"/>
      <path class="cls-1" d="M62.57,32.83c1.02-.05,2.15.26,3.24.79.31.15.59.41,1,.24.25-.1.31.12.34.33.09.66.19,1.32.27,1.98.02.15.09.37-.1.45-.24.09-.32-.16-.41-.31-.65-1.08-1.44-2.03-2.64-2.52-2.53-1.02-6.26-.18-6.78,3.79-.3,2.34.08,4.54,1.9,6.24,2.25,2.1,6.19,1.47,7.74-1.19.1-.17.17-.49.41-.42.28.08.08.36.08.56,0,1.09-.58,1.73-1.56,2.13-2.82,1.14-5.58,1.33-8.1-.65-2.08-1.64-2.68-4.65-1.66-7.45.87-2.38,3.28-3.95,6.27-3.95Z"/>
      <path class="cls-1" d="M111.89,15.49c.68-.01,1.33.11,1.95.37.15.06.35.18.47.13.81-.34.71.25.77.71.06.47.15.94.22,1.41.03.2.14.48-.1.58-.3.12-.32-.21-.4-.38-.7-1.56-1.99-2.17-3.62-2.17-1.05,0-1.95.72-2.12,1.59-.19,1.04.31,2,1.33,2.42.86.35,1.75.62,2.61.97,1.15.47,2.18,1.1,2.59,2.38.69,2.12-.75,4.34-3.08,4.77-1.17.21-2.32.08-3.45-.3-.47-.16-.76-.46-.87-.95-.14-.6-.31-1.2-.44-1.8-.04-.19-.13-.49.13-.56.28-.07.29.26.36.44.59,1.53,1.74,2.35,3.32,2.55,1.73.22,3.29-1.09,3.21-2.63-.04-.81-.43-1.39-1.14-1.76-.76-.4-1.59-.63-2.39-.93-.54-.2-1.06-.41-1.55-.71-1.44-.88-1.98-2.07-1.63-3.61.28-1.22,1.56-2.27,2.96-2.45.28-.03.57-.04.85-.06Z"/>
      <path class="cls-1" d="M25.92,15.49c.63.02,1.23.11,1.81.37.13.06.3.16.4.12.88-.34.82.3.89.83.06.5.15.99.21,1.48.02.15.09.37-.14.42-.21.05-.27-.16-.33-.31-.31-.76-.8-1.34-1.51-1.75-.73-.41-1.5-.6-2.33-.52-.99.09-1.78.76-1.94,1.63-.18.93.32,1.93,1.24,2.35.65.29,1.34.49,2,.75.57.23,1.17.44,1.7.74,1.36.79,1.96,2.08,1.72,3.55-.25,1.52-1.39,2.69-3.02,3.06-1.21.27-2.41.16-3.59-.24-.49-.17-.8-.46-.9-1-.12-.61-.31-1.2-.44-1.8-.04-.18-.14-.48.16-.53.22-.04.26.23.33.41.56,1.55,1.71,2.37,3.29,2.6,1.7.25,3.27-.98,3.25-2.51,0-.83-.36-1.46-1.11-1.86-.76-.41-1.6-.61-2.39-.94-.48-.2-.97-.39-1.44-.63-1.47-.76-2.09-1.98-1.82-3.52.23-1.29,1.44-2.4,2.89-2.61.35-.05.71-.06,1.07-.09Z"/>
      <path class="cls-1" d="M15.51,22.06c0-1.36,0-2.72,0-4.07,0-.91-.11-1.74-1.26-1.91-.12-.02-.3-.08-.25-.27.04-.14.18-.14.3-.14,1.19.05,2.38.07,3.57-.02.13,0,.31,0,.32.19.01.14-.11.22-.21.26-.96.3-1.03,1.1-1.03,1.9-.02,2.55-.01,5.1,0,7.65,0,1.46.13,1.63,1.51,2.16.13.05.31.06.3.25-.02.24-.23.21-.39.2-1.24-.12-2.47-.11-3.71,0-.16.01-.37.04-.4-.18-.03-.19.15-.23.28-.25.8-.17.96-.78.96-1.46.01-1.43,0-2.86,0-4.29,0,0,0,0,0,0Z"/>
      <path class="cls-1" d="M58.94.08c.4,0,.81,0,1.21,0,.72.01.88.24.59.92-.21.5-.47.99-.71,1.48-.51,1.04-1.03,2.09-1.55,3.13-.15.29-.3.72-.7.49-.32-.18.01-.5.12-.72.64-1.35,1.3-2.7,1.99-4.03.25-.48.2-.68-.39-.66-.66.03-1.33,0-2,0-.24,0-.43-.05-.41-.35.02-.28.23-.26.42-.27.48,0,.95,0,1.43,0Z"/>
      <path class="cls-1" d="M49.24,3.12c0,.83,0,1.67,0,2.5,0,.26.02.56-.38.54-.37-.02-.31-.3-.31-.53,0-1.19-.02-2.38,0-3.57.01-.5-.1-.78-.66-.73-.17.01-.43.06-.44-.22-.01-.22.21-.22.36-.27.3-.1.57-.24.76-.5.12-.17.27-.28.48-.21.23.09.18.31.19.49,0,.83,0,1.67,0,2.5Z"/>
      <path class="cls-1" d="M88.09,44.51c0,.11-1.07,1.16-1.18,1.16-.17,0-1.16-.99-1.16-1.17,0-.09,1.07-1.17,1.17-1.17.13,0,1.17,1.05,1.17,1.18Z"/>
      <path class="cls-1" d="M46.64,44.9c-.08-.22-.29-.07-.44-.04-.58.1-1.08-.13-1.57-.38-.68-.34-1.27-.84-1.9-1.26-.55-.37-.69-.73-.35-1.35.23-.42.31-.95.4-1.44.12-.73-.03-1.55.94-1.96-.06-.04-.12-.08-.18-.12h-3.28c.12.29.28.34.44.36.8.12,1.08.7,1.21,1.4.1.53-.02,1.04-.16,1.55-.14.5-.35.52-.73.18-1.12-1-2.21-2.03-3.23-3.13-.87-.94-1.86-1.78-2.55-2.88-.47-.75-.5-1.35-.07-1.84.47-.55,1.21-.7,1.96-.4.18.07.35.16.51.26.54.33.97.76,1.24,1.34.09.2.22.42.45.11.07-.1-.08-1.88-.17-1.97-.04-.05-.12-.12-.16-.11-.65.21-1.19-.24-1.79-.32-2.07-.29-3.59.94-3.39,2.77.05.46.23.88.48,1.26.2.31.14.45-.21.56-.51.15-.94.44-1.32.82-1.83,1.9-1.29,5.11,1.08,6.5,2.12,1.24,4.66,1.06,6.75-.55.42-.32.7-.34,1.1,0,.42.34.89.64,1.37.89,1.04.55,2.13.63,3.24.18.17-.07.4-.16.32-.39ZM39.98,43.76c-.78.45-1.62.65-2.2.66-2.97,0-5.14-2.12-4.97-4.53.03-.41.14-.8.36-1.15.78-1.27,1.52-1.33,2.48-.21,1.35,1.57,2.79,3.06,4.4,4.36.47.38.41.58-.07.85Z"/>
      <path class="cls-1" d="M85.67,15.68c-2.22-.33-4.42.18-6.63.06-.03,0-.06.06-.13.14.07.07.11.14.17.16,1.28.5,1.39.64,1.39,1.95,0,2.79,0,5.58,0,8.37,0,.68-.08,1.3-.9,1.49-.12.03-.24.1-.22.24.02.19.18.19.33.2.12,0,.24,0,.36-.01,1.38-.21,2.76-.14,4.13-.02,3.57.31,6.62-2.09,7-5.49.43-3.83-1.68-6.51-5.49-7.07ZM82.56,27.29c-.43-.15-.65-.45-.65-.91,0-3.07,0-6.14,0-9.21,0-.52.3-.8.82-.9,3.53-.72,6.69,1.63,7.01,5.23.03.31.04.62.06.84.14,4.56-3.59,6.24-7.23,4.96Z"/>
      <path class="cls-1" d="M77.52,32.82c-3.84-.03-6.62,2.62-6.66,6.32-.04,3.9,2.58,6.53,6.52,6.56,3.81.03,6.54-2.7,6.57-6.58.03-3.72-2.58-6.27-6.44-6.3ZM80.9,43.93c-1.91,1.77-4.94,1.6-6.73-.4-1.88-2.09-2.32-4.55-1.46-7.19.9-2.75,4.23-3.79,6.86-2.22,1.94,1.16,3.01,3.14,3.01,5.56.03,1.65-.47,3.11-1.69,4.24Z"/>
      <path class="cls-1" d="M105.32,27.76c-.98-.08-1.33-.8-1.63-1.58-.89-2.28-1.78-4.57-2.67-6.85-.47-1.2-.94-2.39-1.41-3.59-.07-.17-.12-.4-.33-.42-.23-.02-.28.22-.37.38-.05.11-.1.22-.15.33-1.53,3.41-3.06,6.81-4.6,10.22-.28.63-.58,1.26-1.29,1.55-.1.04-.25.09-.19.25.06.17.23.14.37.14.86-.02,1.71-.05,2.57.06.18.02.45.08.48-.16.04-.25-.25-.23-.42-.29-.8-.29-.96-.58-.7-1.41.26-.87.68-1.68,1.05-2.5.18-.39.5-.46.88-.46,1.17,0,2.33.02,3.5,0,.46,0,.7.18.85.59.24.67.51,1.33.75,2.01.45,1.3.44,1.31-.65,1.99.08.08.12.13.15.13,1.28.01,2.57.02,3.85.03.12,0,.27-.02.26-.17,0-.18-.18-.23-.31-.24ZM99.91,22.53c-.43,0-.85,0-1.28,0,0,0,0,.02,0,.03-.47-.02-.95-.03-1.42-.07-.38-.03-.49-.22-.32-.58.55-1.21,1.09-2.42,1.64-3.63.05-.1.13-.23.22-.25.18-.04.22.14.27.27.47,1.17.94,2.33,1.4,3.5.2.49,0,.72-.51.72Z"/>
      <path class="cls-1" d="M60.75,27.78c-1.14-.11-1.46-.99-1.8-1.87-1.03-2.66-2.08-5.32-3.12-7.97-.29-.75-.58-1.51-.88-2.26-.06-.15-.12-.34-.31-.35-.2,0-.25.19-.33.33-.07.13-.12.26-.18.39-1.53,3.41-3.06,6.81-4.6,10.21-.28.62-.57,1.27-1.29,1.55-.1.04-.24.09-.18.25.07.16.24.14.37.13.88-.03,1.76-.05,2.64.06.15.02.39.05.41-.16.03-.21-.21-.22-.35-.27-.9-.35-1.03-.59-.75-1.5.24-.8.63-1.54.97-2.3.19-.43.48-.6.94-.6,1.17.02,2.33.02,3.5,0,.46,0,.7.18.85.59.24.7.53,1.38.77,2.07.42,1.25.41,1.25-.61,2.08,1.34,0,2.68,0,4.03,0,.11,0,.19-.07.18-.17-.01-.13-.14-.2-.26-.21ZM55.21,22.53c-.4,0-.81,0-1.21,0,0,0,0,.02,0,.02-.47-.02-.95-.03-1.42-.07-.38-.03-.48-.22-.32-.58.54-1.19,1.07-2.38,1.61-3.56.06-.12.09-.3.25-.31.21-.01.24.2.29.34.45,1.12.89,2.24,1.35,3.36.24.58,0,.8-.56.79Z"/>
      <path class="cls-1" d="M54.94,3.08c-.29-.22-.08-.34.04-.51.52-.74.44-1.53-.19-2.11-.68-.62-1.79-.62-2.48,0-.65.59-.73,1.37-.19,2.1.16.21.26.32,0,.56-.66.62-.79,1.27-.47,1.98.37.81,1.05,1.12,1.74,1.17.99,0,1.77-.44,2.04-1.15.29-.77.22-1.5-.5-2.04ZM53.52.67c.65,0,1.12.37,1.13.92.02.55-.44.97-1.07.99-.63.02-1.11-.38-1.13-.93-.02-.55.44-.97,1.07-.98ZM53.57,5.64c-.75,0-1.39-.58-1.37-1.25.01-.66.61-1.22,1.32-1.23.73-.01,1.37.58,1.37,1.26,0,.67-.6,1.21-1.32,1.22Z"/>
      <path class="cls-1" d="M66.88,1.59c-.39-.93-1.06-1.54-2.09-1.58-.97-.03-1.68.48-2.09,1.34-.63,1.31-.62,2.63.17,3.87.91,1.43,2.81,1.41,3.73,0,.4-.61.58-1.29.56-2.08.04-.5-.07-1.04-.28-1.55ZM65.9,5.03c-.7.8-1.72.78-2.37-.05-.72-.92-.72-2.77-.01-3.69.65-.84,1.77-.84,2.43,0,.42.53.5,1.16.55,1.81-.06.69-.11,1.37-.6,1.93Z"/>
    </g>
  </g>
</svg>