<?xml version="1.0" encoding="UTF-8"?>
<svg id="Layer_2" data-name="Layer 2" xmlns="http://www.w3.org/2000/svg" viewBox="0 0 105.99 48.5">
  <defs>
    <style>
      .cls-1 {
        fill: #b2aead;
      }
    </style>
  </defs>
  <g id="Layer_1-2" data-name="Layer 1">
    <g>
      <path class="cls-1" d="M65.89,3.31c-.48.26-.9.61-1.32.95-1.04.84-2.01,1.75-2.96,2.68-.89.88-1.78,1.77-2.67,2.65-.47.47-.9.97-1.36,1.44-.65.66-1.28,1.35-1.92,2.02-1.4,1.46-2.75,2.96-3.97,4.57-1.04,1.38-2.1,2.74-3.14,4.11-.84,1.12-1.67,2.24-2.51,3.37-.5.68-1,1.36-1.49,2.04-.12.16-.23.23-.45.21-1.96-.15-3.89-.51-5.81-.95-.38-.09-.38-.1-.18-.44.52-.84,1.14-1.61,1.79-2.36.98-1.13,2.04-2.18,3.07-3.26.53-.56,1.08-1.12,1.63-1.66.93-.91,1.87-1.81,2.82-2.7.71-.67,1.41-1.35,2.16-1.98.88-.74,1.77-1.47,2.66-2.19,1.5-1.21,3.03-2.37,4.59-3.51,1.83-1.34,3.66-2.69,5.55-3.95.51-.34,1.01-.69,1.49-1.07.04-.03.08-.05.11-.13-.3.09-.55.23-.81.35-2.09.98-4.12,2.09-6.13,3.22-1.24.69-2.47,1.39-3.7,2.1-2.03,1.18-3.98,2.49-5.87,3.89-1.53,1.13-3.01,2.3-4.47,3.52-1.21,1.01-2.43,2.02-3.62,3.06-.76.66-1.49,1.35-2.23,2.03-.99.91-1.96,1.85-2.93,2.8-.23.23-.48.44-.71.67-.21.21-.45.28-.73.22-.61-.13-1.19-.36-1.76-.6-1.31-.56-2.54-1.27-3.68-2.12-1.02-.76-1.94-1.62-2.77-2.58-.31-.36-.59-.73-.87-1.11-.73-.99-1.11-2.11-1.17-3.34-.06-1.19.09-2.36.59-3.45.41-.9.96-1.72,1.59-2.49,1.37-1.66,3.05-2.95,4.91-4.02,1.51-.86,3.12-1.51,4.75-2.1,2.3-.82,4.65-1.43,7.03-1.94,1.25-.27,2.49-.54,3.75-.71.76-.1,1.52-.2,2.28-.28.82-.09,1.64-.14,2.46-.2.64-.05,1.28-.07,1.92-.07,1.61,0,3.22,0,4.83.01.62,0,1.24.1,1.86.14.31.02.63.04.94.07,1.04.08,2.08.17,3.12.27,1.05.1,2.09.24,3.13.42,1.37.23,2.72.54,4.06.94,1.8.54,3.55,1.23,5.21,2.12,1.68.89,3.26,1.93,4.69,3.19.68.6,1.34,1.23,1.85,1.99.72,1.06,1.19,2.22,1.31,3.52.18,2.04-.4,3.87-1.58,5.51-.56.78-1.25,1.45-1.95,2.11-1.23,1.17-2.65,2.04-4.18,2.75-2.17,1-4.42,1.8-6.74,2.39-2.19.56-4.4,1.03-6.64,1.39-1.03.17-2.06.32-3.1.44-.71.08-1.43.14-2.14.2-.93.08-1.87.13-2.81.18-1.49.08-2.99.03-4.48.04-.25,0-.26-.03-.19-.27.14-.44.35-.85.59-1.25,1.03-1.7,2.08-3.38,3.18-5.03.99-1.48,1.95-2.99,2.95-4.46,1.23-1.82,2.54-3.57,3.89-5.31,1.39-1.79,2.78-3.57,4.17-5.34.68-.87,1.36-1.73,2.03-2.61.02-.03.04-.06.07-.09ZM63.67,2.05c-.33-.05-.61-.09-.9-.13-.82-.1-1.63-.19-2.45-.26-1.02-.09-2.04-.14-3.06-.2-.84-.05-1.69.02-2.53-.06-.16-.01-.33-.02-.49,0-.4.05-.8.03-1.21.04-.62.01-1.24.02-1.87.05-.83.04-1.66.07-2.49.12-.51.03-1.02.03-1.52.09-.68.08-1.36.21-2.04.33-1.63.28-3.26.6-4.87,1-1.9.46-3.77,1.02-5.61,1.67-1.59.57-3.08,1.32-4.41,2.37-1.08.86-1.97,1.87-2.61,3.09-.53,1.01-.83,2.06-.63,3.21.21,1.19.64,2.27,1.55,3.1.62.57,1.35.85,2.21.71.62-.1,1.2-.32,1.76-.59.85-.41,1.69-.85,2.52-1.32,1.12-.63,2.26-1.21,3.42-1.77,1.15-.55,2.27-1.15,3.42-1.71,1.59-.78,3.18-1.57,4.78-2.33,1.21-.57,2.42-1.16,3.64-1.72,1.93-.89,3.87-1.76,5.83-2.59,2.1-.88,4.21-1.75,6.36-2.5.29-.1.58-.2.85-.35.11-.06.24-.11.35-.27ZM77.67,11.43c0-.14,0-.29,0-.43,0-.08-.02-.15-.03-.23-.26-1.49-1.04-2.67-2.18-3.61-1.48-1.23-3.12-2.22-4.89-2.99-.91-.4-1.85-.74-2.81-1.01-.3-.08-.3-.08-.47.17-.31.47-.62.95-.92,1.43-1.01,1.62-1.92,3.3-2.8,4.98-.84,1.6-1.72,3.18-2.52,4.81-.11.22-.23.44-.34.66-.7,1.32-1.42,2.63-2.03,4-.21.48-.38.98-.51,1.49-.07.28-.1.56-.09.85.02.59.29.94.87,1.09.4.1.8.09,1.2.04,1.45-.19,2.87-.51,4.27-.91,1.27-.36,2.52-.79,3.77-1.23,1.36-.49,2.66-1.09,3.89-1.84,1.12-.68,2.17-1.48,3.15-2.35.8-.7,1.44-1.51,1.86-2.48.33-.78.58-1.58.57-2.44Z"/>
      <path class="cls-1" d="M8.56,33.91c2.65,0,5.31,0,7.96,0,.99,0,1.66.49,2.13,1.32.24.42.34.89.34,1.38,0,3.8,0,7.61,0,11.41,0,.51,0,.48-.47.48-.88,0-1.76,0-2.64,0-.08,0-.15,0-.23,0-.1,0-.16-.06-.17-.16,0-.09-.01-.17-.01-.26,0-3.07,0-6.13,0-9.2,0-.2,0-.4,0-.6-.03-.53-.4-.89-.93-.89-.85,0-1.71,0-2.56,0-.43,0-.67.22-.7.66,0,.11,0,.23,0,.34,0,3.21,0,6.42,0,9.63q0,.48-.47.48c-.87,0-1.74,0-2.62,0-.09,0-.17,0-.26,0-.1,0-.16-.07-.16-.17,0-.11,0-.21,0-.32,0-3.19,0-6.38,0-9.57,0-.18,0-.36-.04-.54-.08-.34-.27-.51-.63-.51-.93,0-1.86,0-2.79,0-.16,0-.33,0-.49,0-.2,0-.23.04-.24.24,0,.1,0,.19,0,.29,0,3.35,0,6.71,0,10.06q0,.52-.52.52c-.9,0-1.8,0-2.7,0-.31,0-.33-.02-.34-.32,0-.06,0-.11,0-.17,0-4.53,0-9.06,0-13.59,0-.57.04-.49.49-.49,2.69,0,5.38,0,8.08,0Z"/>
      <path class="cls-1" d="M82.41,41.22c0,2.27,0,4.54,0,6.81q0,.46-.46.46c-3.43,0-6.86,0-10.29,0-1.02,0-1.75-.7-1.82-1.72-.08-1.22-.02-2.43-.04-3.65-.01-.84,0-1.69,0-2.53,0-.29.01-.58.05-.86.12-.86.67-1.72,1.72-1.93.14-.03.29-.03.43-.03,2.13,0,4.25,0,6.38,0q.45,0,.45-.46c0-.95,0-1.9,0-2.85,0-.08,0-.15,0-.23,0-.3.03-.32.33-.32.94,0,1.88,0,2.82,0,.42,0,.42,0,.42.41,0,2.3,0,4.6,0,6.9ZM78.8,38.17c-.09.03-.1.12-.13.18-.26.5-.53,1-.78,1.5-.26.52-.66.78-1.26.77-.75-.02-1.49,0-2.24,0-.3,0-.54.1-.74.32-.19.2-.27.44-.27.71,0,1.15,0,2.3,0,3.45,0,.06,0,.12.01.17.05.3.24.48.54.51.08,0,.15,0,.23,0,1.43,0,2.85,0,4.28,0,.06,0,.12,0,.17,0,.18-.01.21-.04.23-.22,0-.07,0-.13,0-.2,0-2.3,0-4.6,0-6.89,0-.09.03-.19-.03-.28Z"/>
      <path class="cls-1" d="M27.72,48.49c-1.79,0-3.58-.02-5.37,0-.76.01-1.24-.55-1.25-1.21-.02-1.28-.02-2.57,0-3.85.01-.67.5-1.41,1.44-1.41,1.85,0,3.7,0,5.55,0,.46,0,.68.19.71.65.02.45.01.9,0,1.35,0,.21-.05.25-.27.25-.35,0-.71,0-1.06,0-.87,0-1.74,0-2.62,0-.09,0-.17,0-.26,0-.24.02-.36.13-.37.35-.01.34,0,.69,0,1.03,0,.13.07.19.2.19.07,0,.13,0,.2,0,1.71,0,3.41,0,5.12,0,.06,0,.12,0,.17,0,.19-.01.21-.04.23-.22,0-.07,0-.13,0-.2,0-1.17,0-2.34,0-3.51,0-.14,0-.29-.02-.43-.06-.48-.44-.9-1.01-.9-2.48.01-4.96,0-7.44,0-.13,0-.3.07-.37-.07-.05-.11.08-.22.14-.33.35-.57.7-1.14,1.04-1.72.29-.5.69-.73,1.27-.73,2.54,0,5.08,0,7.62,0,.53,0,1,.13,1.41.47.5.42.76.97.82,1.62.02.18.01.36.01.55,0,2.54,0,5.08,0,7.62,0,.02,0,.04,0,.06,0,.41,0,.42-.41.42-1.82,0-3.64,0-5.46,0Z"/>
      <path class="cls-1" d="M100.1,48.49c-1.79,0-3.58-.02-5.37,0-.61,0-1.23-.44-1.23-1.22,0-1.25,0-2.51,0-3.76,0-.7.49-1.5,1.49-1.49,1.82.01,3.64,0,5.46,0,.5,0,.71.17.75.67.03.45.02.9,0,1.35,0,.18-.05.22-.23.23-.09,0-.17,0-.26,0-1.15,0-2.3,0-3.45,0-.1,0-.19,0-.29,0-.22.02-.35.13-.36.34-.02.35-.01.71-.01,1.06,0,.12.07.17.18.17.07,0,.13,0,.2,0,1.71,0,3.43,0,5.14,0,.03,0,.06,0,.09,0,.27,0,.29-.02.29-.3,0-1.3,0-2.61,0-3.91,0-.65-.42-1.05-1.07-1.05-2.46,0-4.92,0-7.39,0-.13,0-.31.07-.38-.05-.08-.13.08-.24.15-.35.34-.58.7-1.14,1.04-1.72.29-.49.7-.73,1.27-.72,2.52,0,5.04,0,7.56,0,.43,0,.84.05,1.21.29.7.47,1.07,1.14,1.08,1.98.02,1.47,0,2.95,0,4.43,0,1.18,0,2.36,0,3.53,0,.08,0,.15,0,.23-.01.22-.04.24-.25.26-.09,0-.17,0-.26,0-1.79,0-3.58,0-5.37,0Z"/>
      <path class="cls-1" d="M39.23,40.33c.26-.41.51-.83.77-1.24.17-.28.35-.55.52-.83.22-.34.51-.51.93-.5,1.41.02,2.82.03,4.23,0,1.26-.02,2.07.99,2.19,1.95.03.28.05.55.05.83,0,2.44,0,4.89,0,7.33,0,.07,0,.13,0,.2q0,.41-.41.42c-.9,0-1.8,0-2.7,0-.08,0-.15,0-.23,0-.12,0-.17-.07-.18-.18,0-.1,0-.19,0-.29,0-2.04,0-4.08,0-6.12,0-.11,0-.21,0-.32-.04-.45-.34-.97-1.04-.97-1.27.01-2.55,0-3.82,0-.33,0-.34,0-.34.34,0,2.35,0,4.69,0,7.04,0,.11,0,.21,0,.32,0,.11-.07.17-.18.18-.05,0-.1,0-.14,0-.95,0-1.9,0-2.85,0-.31,0-.33-.02-.33-.32,0-.07,0-.13,0-.2,0-4.51,0-9.03,0-13.54,0-.6.03-.51.52-.51.85,0,1.71,0,2.56,0,.09,0,.17,0,.26,0,.1,0,.16.06.17.16,0,.1,0,.21,0,.32,0,1.87,0,3.74,0,5.61v.31s.04.01.06.02Z"/>
      <path class="cls-1" d="M55.77,43.13c0-1.64,0-3.28,0-4.92,0-.43,0-.43.43-.43,3.09,0,6.17.01,9.26,0,.84,0,1.75.46,2.09,1.57.09.3.14.62.14.93,0,2.61,0,5.21,0,7.82,0,.04,0,.08,0,.11-.01.25-.04.28-.28.29-1,0-1.99,0-2.99,0-.24,0-.26-.02-.26-.27,0-.84,0-1.69,0-2.53,0-1.29,0-2.59,0-3.88,0-.22-.02-.44-.12-.64-.17-.35-.45-.55-.84-.55-1.19,0-2.38,0-3.56,0-.24,0-.27.03-.28.26,0,.09,0,.17,0,.26,0,2.3,0,4.6,0,6.9q0,.46-.46.46c-.88,0-1.76,0-2.64,0-.06,0-.12,0-.17,0-.27,0-.29-.03-.29-.3,0-.08,0-.15,0-.23,0-1.61,0-3.22,0-4.83Z"/>
      <path class="cls-1" d="M84.59,43.71c0-1.45,0-2.89,0-4.34,0-.46.15-.86.48-1.19.27-.27.58-.4.95-.4.94,0,1.88,0,2.82,0,1.54,0,3.09,0,4.63,0,.11,0,.25-.06.32.06.05.1-.06.19-.12.28-.37.6-.75,1.2-1.12,1.81-.28.46-.67.71-1.23.69-.74-.02-1.48,0-2.21,0-.51,0-.87.32-.94.82-.03.26-.05.51-.05.77,0,1.94,0,3.89,0,5.83q0,.45-.44.45c-.92,0-1.84,0-2.76,0-.31,0-.33-.02-.33-.33,0-1.49,0-2.97,0-4.46Z"/>
      <path class="cls-1" d="M53.59,43.2c0,1.62,0,3.24,0,4.86,0,.43,0,.44-.42.44-.89,0-1.78,0-2.67,0-.08,0-.15,0-.23,0-.12,0-.17-.07-.18-.18,0-.08,0-.15,0-.23,0-2.24,0-4.48,0-6.72,0-.68.26-1.22.83-1.61.8-.55,1.6-1.12,2.4-1.68.05-.03.09-.07.14-.09.09-.04.13,0,.13.09,0,.09,0,.17,0,.26,0,1.63,0,3.26,0,4.88Z"/>
      <path class="cls-1" d="M50.08,36.6c0-.75,0-1.49,0-2.24,0-.09,0-.17,0-.26,0-.11.07-.18.18-.18.07,0,.13,0,.2,0,.91,0,1.82,0,2.73,0,.07,0,.13,0,.2,0,.12,0,.17.07.18.18,0,.06,0,.11,0,.17,0,.69,0,1.38,0,2.07,0,.21-.07.36-.24.48-1.01.74-2.01,1.5-3.02,2.25-.06.04-.11.13-.19.09-.08-.04-.06-.13-.06-.21,0-.79,0-1.57,0-2.36Z"/>
    </g>
  </g>
</svg>