<?xml version="1.0" encoding="UTF-8"?>
<svg id="Layer_2" data-name="Layer 2" xmlns="http://www.w3.org/2000/svg" viewBox="0 0 72.18 76.15">
  <defs>
    <style>
      .cls-1 {
        fill: #b2aead;
      }
    </style>
  </defs>
  <g id="Layer_1-2" data-name="Layer 1">
    <g>
      <path class="cls-1" d="M67.03,46.9c.05,3.66-.63,7.02-1.92,10.26-1.03,2.58-2.45,4.93-4.29,7.02-1.78,2.03-3.87,3.65-6.28,4.86-1.98.99-4.08,1.63-6.27,1.97-1.07.16-2.15.27-3.23.29-2.74.04-5.38-.41-7.81-1.76-.95-.53-1.82-1.16-2.62-1.9-1.54-1.41-2.74-3.09-3.78-4.89-.86-1.48-1.61-3.03-2.32-4.59-1.14-2.49-2.2-5.02-3.48-7.44-.74-1.4-1.57-2.75-2.56-4-1.01-1.28-2.15-2.43-3.55-3.29-1.08-.67-2.24-1.1-3.5-1.24-.92-.1-1.82,0-2.69.33-.62.23-1.17.58-1.6,1.09-.71.84-.9,1.78-.47,2.81.37.87.98,1.53,1.81,1.99.69.38,1.42.66,2.18.86.92.23,1.85.44,2.77.66.53.13,1.05.24,1.58.38,1.63.44,3.07,1.26,4.33,2.36,1.32,1.15,2.38,2.51,3.13,4.1.56,1.2.88,2.46.94,3.77.03.8-.07,1.6-.19,2.39-.19,1.22-.52,2.4-1.09,3.51-1.25,2.47-3.25,3.98-5.94,4.58-.95.21-1.91.33-2.88.29-1.33-.06-2.63-.27-3.9-.65-2.53-.76-4.81-1.99-6.83-3.71-1.49-1.27-2.73-2.75-3.73-4.43-1.06-1.79-1.88-3.68-2.35-5.72-.19-.84-.33-1.68-.4-2.54-.05-.6-.1-1.19-.07-1.79.1-2.73.75-5.31,2.22-7.64,1.16-1.84,2.68-3.29,4.62-4.28,1.17-.6,2.41-.97,3.72-1.15,1.9-.26,3.76-.05,5.58.48,2.22.64,4.27,1.66,6.14,3.03,1.18.86,2.18,1.92,3.13,3.02,1.63,1.87,3.06,3.89,4.52,5.9,1.23,1.69,2.45,3.38,3.79,4.98,1.16,1.39,2.39,2.71,3.8,3.86,1.09.89,2.26,1.64,3.58,2.15,1.34.52,2.73.73,4.17.62,1.18-.09,2.31-.41,3.4-.87,2.1-.9,3.95-2.16,5.6-3.73,1.24-1.17,2.32-2.47,3.23-3.91,1.46-2.31,2.43-4.81,2.99-7.48.4-1.91.55-3.84.44-5.78-.15-2.67-.75-5.23-2.05-7.6-.84-1.54-1.93-2.88-3.36-3.91-1.26-.9-2.65-1.51-4.19-1.75-2.02-.31-4.01-.13-5.97.43-1.8.52-3.49,1.31-5.11,2.22-2.07,1.16-3.96,2.58-5.83,4.04-1.09.85-2.16,1.71-3.25,2.56-.8.62-1.63,1.19-2.52,1.66-1.42.76-2.92,1.19-4.53,1.29-1.74.11-3.46-.09-5.16-.41-1.78-.33-3.54-.74-5.25-1.33-2.07-.71-3.95-1.75-5.66-3.1-3.32-2.63-5.62-5.98-6.97-9.99-.47-1.4-.78-2.84-.93-4.31-.39-3.95.33-7.68,2.32-11.14.99-1.72,2.24-3.24,3.74-4.56,1.18-1.04,2.47-1.93,3.87-2.64,1.67-.85,3.43-1.43,5.31-1.64,1.38-.15,2.72-.06,4.03.36,1.89.61,3.31,1.82,4.31,3.53.74,1.27,1.19,2.65,1.37,4.11.2,1.53.37,3.07.58,4.6.19,1.4.45,2.8,1.01,4.11.25.59.57,1.13,1.04,1.57.51.48,1.11.75,1.81.76.43,0,.86,0,1.27-.13.24-.07.37-.22.42-.46.1-.44.02-.85-.09-1.27-.15-.62-.43-1.19-.74-1.74-.36-.65-.73-1.3-1.1-1.95-.33-.58-.63-1.18-.88-1.81-.27-.68-.41-1.4-.44-2.12-.11-2.4.48-4.62,1.73-6.66.99-1.63,2.33-2.9,4.08-3.69.74-.33,1.51-.54,2.31-.64,2.15-.26,4.05.37,5.79,1.58,1.54,1.07,2.73,2.47,3.68,4.08.91,1.54,1.54,3.19,1.84,4.95.32,1.92.29,3.82-.37,5.68-.39,1.1-.98,2.09-1.77,2.95-.42.45-.91.82-1.46,1.12-1.02.56-2.11.88-3.26.9-1.46.02-2.8-.35-3.86-1.46-.42-.43-.68-.93-.79-1.51-.12-.66-.19-1.33-.23-2-.08-1.1-.14-2.19-.34-3.28-.2-1.05-.62-1.99-1.31-2.8-.34-.4-.75-.72-1.21-.98-.46-.26-.95-.31-1.46-.24-.37.05-.66.25-.89.54-.32.41-.49.88-.55,1.39-.05.45-.05.89-.01,1.34.05.57.28,1.08.56,1.57.47.83,1.08,1.56,1.71,2.27.57.64,1.14,1.28,1.7,1.93.29.34.55.7.81,1.07.7.99,1.01,2.11,1.06,3.31.04.95,0,1.9-.28,2.82-.71,2.3-2.18,3.91-4.38,4.85-.95.41-1.95.62-2.99.6-1.85-.02-3.46-.66-4.83-1.89-1.09-.98-1.86-2.18-2.41-3.52-.75-1.87-.93-3.82-.74-5.82.17-1.8.55-3.57.87-5.35.3-1.62.5-3.24.41-4.89-.05-.97-.24-1.92-.6-2.83-.17-.42-.39-.8-.67-1.16-.69-.89-1.6-1.36-2.74-1.39-1.22-.04-2.26.42-3.23,1.07-.9.6-1.61,1.39-2.19,2.29-1.29,1.98-2.13,4.14-2.46,6.48-.43,3.06-.02,6.02,1.19,8.86.98,2.3,2.41,4.28,4.26,5.95,1.75,1.58,3.75,2.76,6.01,3.46.84.26,1.7.42,2.57.5,2.39.22,4.67-.28,6.89-1.11,1.22-.46,2.41-1,3.58-1.57,1.34-.65,2.67-1.34,4.01-1.98,1.53-.73,3.09-1.4,4.71-1.91,1.36-.42,2.74-.71,4.16-.81,2.22-.15,4.39.17,6.48.94,2.48.91,4.71,2.23,6.68,3.99,1.48,1.33,2.72,2.86,3.75,4.56,1.51,2.5,2.46,5.22,2.94,8.09.24,1.44.38,2.88.34,4.17ZM8.23,51.94c.02.22.05.42.06.63.04.88.21,1.74.47,2.58.4,1.28,1.03,2.43,2.01,3.38.65.63,1.41,1.1,2.23,1.46.82.36,1.65.68,2.48,1.02.59.24,1.17.49,1.73.79.86.46,1.65,1.02,2.3,1.76.62.7,1.06,1.48,1.23,2.41.02.13.06.25.11.37.01.03.1.07.14.06.04-.01.09-.07.1-.11.01-.09,0-.18-.01-.28-.13-.79-.43-1.5-.89-2.15-.56-.79-1.26-1.41-2.08-1.92-.76-.48-1.57-.86-2.4-1.19-.86-.35-1.74-.68-2.59-1.06-.98-.43-1.85-1.03-2.54-1.87-.9-1.09-1.44-2.34-1.74-3.71-.14-.64-.24-1.28-.24-1.94,0-.13.01-.27-.08-.37-.03-.03-.09-.05-.14-.05-.03,0-.07.03-.08.06-.03.05-.04.1-.05.14Z"/>
      <path class="cls-1" d="M56.2,72.41s-.07.05-.07.07c.02.09.04.18.08.26.21.48.43.95.64,1.43.06.14.12.27.16.42.05.19-.05.37-.23.46-.18.09-.38.06-.5-.11-.08-.1-.14-.22-.19-.34-.43-.95-.86-1.9-1.29-2.85-.04-.08-.07-.17-.1-.26-.05-.17-.03-.33.11-.46.14-.13.3-.15.47-.08.14.06.27.12.4.19.69.37,1.38.74,2.06,1.11.11.06.23.12.35.16.06.02.12-.02.11-.09-.02-.09-.05-.18-.09-.26-.2-.46-.42-.92-.62-1.37-.07-.15-.13-.31-.17-.47-.05-.2.05-.37.24-.45.19-.08.37-.03.5.13.07.09.12.19.16.29.44.97.88,1.93,1.31,2.9.04.08.07.17.09.26.08.37-.19.63-.56.51-.16-.05-.31-.13-.45-.21-.71-.38-1.41-.76-2.12-1.14-.1-.05-.19-.12-.31-.11Z"/>
      <path class="cls-1" d="M61.53,72.24c-.57.01-.98-.25-1.32-.65-.21-.24-.39-.5-.58-.75-.25-.33-.5-.65-.74-.98-.07-.09-.14-.18-.19-.28-.11-.21-.06-.4.12-.55.19-.16.42-.15.6.02.09.09.17.2.25.3.33.43.65.86.98,1.29.11.15.23.29.37.42.33.31.81.33,1.18.05.43-.33.53-.72.29-1.17-.1-.18-.22-.34-.34-.51-.31-.42-.63-.83-.94-1.25-.08-.1-.16-.21-.21-.33-.11-.22-.04-.45.16-.59.18-.12.37-.09.56.08.03.03.05.05.08.08.48.64.99,1.26,1.43,1.93.57.85.41,1.68-.39,2.32-.38.31-.79.56-1.29.55Z"/>
      <path class="cls-1" d="M53.11,73.41c.3.02.59.01.89.07.84.17,1.21,1.19.63,1.89-.22.27-.49.45-.81.57-.48.18-.97.23-1.48.19-.17-.01-.33-.06-.48-.15-.12-.07-.19-.17-.22-.31-.04-.22.11-.42.33-.42.13,0,.26.03.39.05.35.03.71.04,1.05-.09.12-.05.24-.1.35-.17.15-.1.24-.24.21-.42-.03-.2-.19-.26-.36-.31-.2-.06-.4-.05-.61-.02-.3.04-.59.04-.89-.03-.47-.1-.83-.34-.97-.82-.15-.51-.04-.98.35-1.33.62-.57,1.37-.72,2.18-.53.1.02.21.09.29.15.13.1.17.26.12.4-.05.14-.18.24-.34.24-.15,0-.3-.03-.44-.04-.3-.02-.6,0-.87.14-.15.08-.28.18-.35.34-.12.27.01.55.31.58.24.03.48,0,.72,0Z"/>
      <path class="cls-1" d="M72.18,52.54c.01.43-.07.85-.26,1.24-.07.15-.17.29-.27.42-.1.12-.24.17-.4.15-.22-.03-.37-.23-.3-.44.05-.14.12-.27.19-.4.2-.38.23-.78.21-1.19,0-.07-.02-.15-.04-.22-.05-.15-.15-.26-.31-.29-.17-.03-.29.05-.38.18-.06.09-.11.2-.14.3-.07.21-.13.43-.2.64-.05.14-.09.28-.15.42-.2.44-.51.73-1.01.76-.53.03-.93-.2-1.21-.65-.13-.21-.21-.44-.24-.68-.05-.49.01-.97.23-1.41.07-.13.15-.26.24-.37.14-.17.34-.2.5-.11.16.09.21.26.13.49-.05.14-.12.27-.18.41-.12.28-.14.58-.1.88.02.15.08.28.2.39.2.18.49.15.63-.08.07-.11.12-.23.16-.35.07-.21.13-.43.21-.64.06-.17.13-.35.22-.51.54-.96,1.67-.68,2.06,0,.19.34.24.7.23,1.08Z"/>
      <path class="cls-1" d="M70.64,58.25c-.06-.01-.18-.03-.28-.05-.87-.18-1.75-.36-2.62-.54-.15-.03-.29-.06-.43-.12-.25-.09-.34-.25-.33-.52,0-.07.01-.15.03-.22.11-.56.23-1.13.35-1.69.03-.13.07-.25.13-.37.06-.12.18-.18.33-.17.15.01.28.12.32.27.04.17,0,.33-.03.5-.08.38-.16.76-.23,1.15-.03.17.02.24.18.3.07.02.14.05.21.06.57.1.55.09.66-.44.06-.27.11-.55.17-.82.03-.11.06-.22.11-.31.07-.14.22-.21.37-.18.17.03.31.16.31.34,0,.13-.03.26-.05.38-.06.33-.14.65-.2.98-.04.21.03.31.24.37.07.02.15.03.22.05.52.11.55.09.66-.45.07-.33.14-.65.22-.98.03-.11.06-.22.12-.31.07-.12.19-.17.33-.15.16.02.29.13.31.28.01.13,0,.26-.02.39-.12.58-.24,1.16-.36,1.75,0,.02,0,.04-.01.05-.11.37-.27.48-.7.46Z"/>
      <path class="cls-1" d="M69.43,63.35c-.03.08-.05.19-.11.28-.37.67-.74,1.34-1.11,2-.04.06-.08.13-.12.18-.23.29-.51.29-.74,0-.18-.22-.27-.49-.39-.74-.29-.63-.57-1.25-.85-1.88-.06-.14-.13-.27-.2-.4-.07-.12-.19-.12-.27,0-.19.32-.37.65-.55.97-.08.14-.17.29-.28.41-.12.14-.3.14-.46.05-.14-.08-.21-.22-.17-.38.03-.12.08-.25.15-.36.34-.62.68-1.24,1.03-1.85.29-.51.67-.51.95,0,.14.24.24.5.36.76.28.61.55,1.22.83,1.83.05.12.12.23.19.34.05.07.13.07.19,0,.07-.09.12-.19.18-.28.17-.31.34-.62.52-.93.06-.11.14-.22.22-.32.11-.12.27-.14.41-.07.15.07.22.19.23.38Z"/>
      <path class="cls-1" d="M63.75,65.76s-.08.01-.1.04c-.13.13-.25.27-.38.41-.17.2-.34.4-.51.59-.06.07-.12.14-.19.2-.17.15-.35.16-.51.04-.17-.13-.2-.33-.07-.55.05-.08.11-.15.17-.22.43-.51.86-1.02,1.3-1.53.07-.08.15-.17.23-.24.24-.19.49-.15.66.11.11.17.15.38.2.58.19.78.37,1.56.56,2.33.05.19,0,.48.23.52.17.03.27-.22.4-.36.18-.19.33-.4.51-.59.11-.13.22-.25.35-.36.15-.13.32-.12.46,0,.16.13.2.31.1.5-.04.08-.1.16-.16.23-.44.53-.89,1.05-1.33,1.58-.08.1-.17.2-.27.28-.25.21-.54.16-.7-.14-.08-.15-.13-.31-.17-.47-.17-.69-.33-1.37-.49-2.06-.07-.27-.14-.54-.21-.81,0-.03-.05-.04-.08-.07Z"/>
      <path class="cls-1" d="M66.42,59.92c.1.03.27.07.42.13.72.25,1.44.51,2.16.76.53.18.53.18.72-.33.1-.28.19-.56.29-.84.05-.12.1-.24.18-.35.09-.13.25-.17.4-.12.17.05.3.2.29.37,0,.11-.03.22-.07.33-.19.54-.38,1.09-.58,1.63-.04.1-.09.21-.14.3-.11.17-.27.25-.48.21-.11-.02-.22-.05-.32-.09-.91-.32-1.82-.64-2.73-.97-.16-.06-.31-.12-.45-.21-.17-.11-.22-.3-.15-.49.07-.2.23-.32.47-.31Z"/>
    </g>
  </g>
</svg>