<svg xmlns="http://www.w3.org/2000/svg" viewBox="0 0 980 980" fill="none" shape-rendering="auto"><metadata xmlns:rdf="http://www.w3.org/1999/02/22-rdf-syntax-ns#" xmlns:xsi="http://www.w3.org/2001/XMLSchema-instance" xmlns:dc="http://purl.org/dc/elements/1.1/" xmlns:dcterms="http://purl.org/dc/terms/"><rdf:RDF><rdf:Description><dc:title>Lorelei</dc:title><dc:creator>Lisa Wischofsky</dc:creator><dc:source xsi:type="dcterms:URI">https://www.figma.com/community/file/1198749693280469639</dc:source><dcterms:license xsi:type="dcterms:URI">https://creativecommons.org/publicdomain/zero/1.0/</dcterms:license><dc:rights>Remix of „Lorelei” (https://www.figma.com/community/file/1198749693280469639) by „Lisa Wischofsky”, licensed under „CC0 1.0” (https://creativecommons.org/publicdomain/zero/1.0/)</dc:rights></rdf:Description></rdf:RDF></metadata><mask id="viewboxMask"><rect width="980" height="980" rx="0" ry="0" x="0" y="0" fill="#fff" /></mask><g mask="url(#viewboxMask)"><rect fill="#ffff33" width="980" height="980" x="0" y="0" /><g transform="translate(10 -60)"><path d="m723 184 8 9c10 13 17 29 21 45 5 23 6 46-3 69-6 15-16 28-29 38 2 9 3 19 3 28 0 20-6 38-14 56l-8 11c-3 3-8 3-10-1-7-8-10-18-13-28l-8-38c-24 8-50 9-75 6l-45-8c-30-6-61-12-92-14-30-3-61-1-91 5-3 0-4 2-6 3-10 6-19 15-24 26-4 7-4 15-3 23l2 12-10 15c-5 8-7 18-8 27l1 36c1 18-1 37-8 53l-2 5h-4l-9-8-19 7c-5 2-10 3-16 3-3 0-5-2-7-4-6-7-11-15-15-23a221 221 0 0 1-19-91c0-33 5-66 15-97 9-24 24-46 45-60 10-6 20-10 31-12 1-6 2-12 5-17 6-13 17-22 29-30 33-23 74-34 114-35 22 0 44 3 66 8l53 10c23 5 46 10 70 11 12 0 25 0 37-5 9-3 16-7 20-15 4-5 4-12 7-17 2-3 7-5 11-3Z" fill="#000000"/><path d="M495 234c28 1 56 6 84 15a201 201 0 0 1 100 65c19 25 31 55 35 86a361 361 0 0 1 2 101l-5 34-4 20c-1 2-1 2-3 2-2-4-2-8-2-12-1-15 1-29 2-44 1-24 3-48 1-72l-6-45c-7-28-20-54-40-75-18-18-40-33-63-43-22-9-44-15-67-19-18-3-36-4-54-4a277 277 0 0 0-128 29c-13 9-25 20-35 32a276 276 0 0 0-55 139c-1 24 0 47 8 70l7 15 12 1 1 3c-3 2-7 2-11 3-10 2-20 6-29 12-7 5-14 11-18 19-5 10-3 22-1 33 5 19 17 37 33 49 11 9 25 14 39 16 10 2 20 0 30-1 5 4 8 12 11 17l18 27a136 136 0 0 0 66 50c22 9 45 14 68 19l41 8 17 5v4h-12a535 535 0 0 1-67-8 255 255 0 0 1-84-33c-11-7-21-16-29-27a214 214 0 0 1-16 123c-15 27-40 48-70 57-3 1-7 2-10 1-2 0-2-1-2-3 1-3 4-5 6-6 12-8 26-14 38-23 13-11 24-23 31-38 6-15 10-32 12-49 2-13 3-26 2-40l-4-38-18-36-19 4a88 88 0 0 1-75-38 93 93 0 0 1-20-58c0-9 3-18 8-25s12-13 19-17c5-4 12-6 18-8l-9-24c-5-22-5-45-2-67a292 292 0 0 1 63-149c9-10 18-19 29-26 7-4 14-5 20-9 43-19 90-25 137-22Z" fill="#000"/><path d="M475 243a276 276 0 0 1 121 23c23 10 45 25 63 43 20 21 33 47 40 75l6 45c2 24 0 48-1 72-1 15-3 29-2 44 0 4 0 8 2 12l-1 20c-2 5-2 10-2 16-2 24-2 49-6 74-1 12-3 25-8 36-3 9-8 17-15 24-12 13-27 24-43 33-19 11-39 16-58 24-5 2-10 4-13 8 8 1 15 0 23-2-5 12-6 24-6 36 0 5-1 11 1 16 3 5 8 9 13 12l35 13c22 8 43 18 65 27 2 4 5 7 6 12 6 11 7 23 3 35-5 13-15 24-27 31-16 11-36 19-55 24a494 494 0 0 1-235-7c-20-7-40-14-58-24-14-8-29-18-40-31-6-8-11-19-12-29a122 122 0 0 0 86-107c4-24 4-49 0-73 8 11 18 20 29 27l27 14a331 331 0 0 0 124 27h12v-4l-17-5-41-8c-23-5-46-10-68-19-13-6-27-13-39-21-10-9-19-18-27-29l-18-27c-3-5-6-13-11-17-10 1-20 3-30 1-14-2-28-7-39-16a94 94 0 0 1-33-49c-2-11-4-23 1-33 4-8 11-14 18-19 9-6 19-10 29-12 4-1 8-1 11-3l-1-3-12-1-7-15c-8-23-9-46-7-70a276 276 0 0 1 54-139c10-12 22-23 35-32a277 277 0 0 1 128-30Z" fill="#ffffff"/><path d="M260 571c4 0 7 0 11 2 5 1 11 4 14 8 2 3 2 7 0 10-5 6-12 10-16 16 6 4 14 6 21 9 4 1 8 3 11 6l1 3-8-2-24-7c-4-1-8-3-9-7-1-3 1-7 3-10l15-13c-4-7-15-8-19-15ZM703 577l2 3 2 16a483 483 0 0 1-2 89c-2 11-5 23-10 33a198 198 0 0 1-106 71c-1 14-3 31-2 47l5 5c8 6 18 9 27 12a451 451 0 0 1 68 28c7 4 13 9 18 15-5 1-10-1-16-2-22-9-43-19-65-27l-35-13c-5-3-10-7-13-12-2-5-1-11-1-16 0-12 1-24 6-36-8 2-15 3-23 2 3-4 8-6 13-8 19-8 39-13 58-24 16-9 31-20 43-33 7-7 12-15 15-24 5-11 7-24 8-36 4-25 4-50 6-74 0-6 0-11 2-16Z" fill="#000"/><path d="M490 492c7 3 13 8 19 13 6 6 12 13 13 22 0 2 1 5-2 6l-4-8c2 9-3 20-12 24-6 3-13 4-19 3-9-1-17-6-23-13-4-6-6-14-4-21 1-8 5-15 11-19a90 90 0 0 0-55 14c-5 3-10 7-13 12-2 3-5 5-9 5-6 0-10-7-8-12l8-11c12-10 26-18 41-22 19-6 40-2 57 7ZM681 484c6 2 14 4 17 9 4 6 1 13-6 14 2 8 2 17-3 24-7 9-23 11-31 3-5-6-9-14-8-22 1-4 3-7 6-11-12 3-21 11-28 20-4 5-6 10-9 16l-5 1 1-6a90 90 0 0 1 39-43c8-5 17-7 27-5Z" fill="#000000"/><path d="M479 386c16 1 33 7 46 17 3 3 7 5 8 9 1 2-1 5-3 4-8-1-15-5-23-7-7-3-15-5-23-5-7-1-15 0-22 1-15 2-30 9-43 16l-21 9-1-1c1-4 3-9 6-12 6-10 17-16 27-21 15-7 32-11 49-10ZM673 390c5 2 11 5 15 10 4 4 5 9 4 15l-23-7c-7-2-13-1-20-2-7 0-15 1-21 5l-13 8h-3c-1-3 0-6 2-8 5-9 13-15 22-18 12-4 24-6 37-3Z" fill="#000000"/><path d="M293 643c3-2 7-1 9 1 3 2 4 6 3 10-2 4-7 7-12 5-3-1-5-5-4-8 0-4 1-7 4-8Z" fill="#000000"/><path d="M597 505h1l3 15 3 26 8 13 6 12c2 5 2 10 5 14 3 5 5 10 5 16 0 9-6 17-14 20l-19 8c-5 3-9 5-15 5-5 0-11 0-13-5-2-2 0-4 2-5l12-3 16-5 13-5c6-2 9-8 7-14l-5-8-7-17-7-19c-4-8-6-17-5-26 0-7 1-15 4-22Z" fill="#000000"/><path d="M478 678c3-1 5 0 5 2 0 3-3 6-6 7-3-3-2-7 1-9ZM503 690l36 7 30 2c7 1 13 0 19 2-1 2-3 3-6 4a158 158 0 0 1-74-6c-3-1-7-3-8-6-1-2 1-4 3-3Z" fill="#000000"/><path d="M720 183c3 1 6 3 8 6a132 132 0 0 1 27 65c3 23-1 47-14 67-6 11-15 20-25 28-15 11-32 20-50 26-23 6-47 7-71 4l-43-8c-30-6-60-11-90-14-32-3-64-1-96 5-2 0-3 2-5 3-10 6-19 15-24 25-4 7-4 16-3 24l2 12-11 15c-6 12-7 25-7 38l2 31c0 16-3 32-9 47l-2 5h-4l-13-11c-10-6-19-11-30-15-7-4-13-7-19-13-7-6-12-15-15-24-6-15-7-29-7-45v-25c1-19 3-39 8-57 4-15 8-30 15-44 10-17 23-31 40-41 8-5 18-8 27-10 1-6 2-12 5-17 6-13 17-22 29-30 33-23 74-34 114-35 22 0 44 3 65 7l56 12c26 5 53 10 79 10 12-1 24-2 35-8 5-4 10-8 13-14 2-5 2-10 5-14 1-3 5-5 8-5Z" fill="#000000"/></g><g transform="translate(10 -60)"></g></g></svg>