<svg xmlns="http://www.w3.org/2000/svg" viewBox="0 0 980 980" fill="none" shape-rendering="auto"><metadata xmlns:rdf="http://www.w3.org/1999/02/22-rdf-syntax-ns#" xmlns:xsi="http://www.w3.org/2001/XMLSchema-instance" xmlns:dc="http://purl.org/dc/elements/1.1/" xmlns:dcterms="http://purl.org/dc/terms/"><rdf:RDF><rdf:Description><dc:title>Lorelei</dc:title><dc:creator>Lisa Wischofsky</dc:creator><dc:source xsi:type="dcterms:URI">https://www.figma.com/community/file/1198749693280469639</dc:source><dcterms:license xsi:type="dcterms:URI">https://creativecommons.org/publicdomain/zero/1.0/</dcterms:license><dc:rights>Remix of „Lorelei” (https://www.figma.com/community/file/1198749693280469639) by „Lisa Wischofsky”, licensed under „CC0 1.0” (https://creativecommons.org/publicdomain/zero/1.0/)</dc:rights></rdf:Description></rdf:RDF></metadata><mask id="viewboxMask"><rect width="980" height="980" rx="0" ry="0" x="0" y="0" fill="#fff" /></mask><g mask="url(#viewboxMask)"><rect fill="#08a3f4" width="980" height="980" x="0" y="0" /><g transform="translate(10 -60)"><path d="M632 187c17 9 33 22 41 40 9 17 10 35 7 53 15 14 22 34 24 54 1 9 2 20-2 30-1 3-3 8-7 11l-4 1-10-8c-9-12-16-24-23-37-7 10-17 19-28 24l-6-3c-9-5-14-17-23-21l-5 18c-1 3-3 6-6 6-6-1-12-3-17-6-22-10-45-20-69-27 2 6 3 12 1 18 0 2-2 4-4 6h-14a188 188 0 0 0-69 0c-6 1-12 5-19 7l-48 20-12 26c-5 12-9 25-12 37-1 3-2 7-1 10 2 4 7 5 9 9v5c-4 10-6 22-7 33-3 16-3 33-3 49v21c0 3-3 6-7 6-4 1-8 0-12-2l19 14c3 2 5 4 5 8-1 2-4 3-6 4 3 1 5 2 6 5 2 3 1 6-2 8-5 3-12 1-16-2-2-3-5-7-5-11 1-2 3-2 5-3-6-3-10-7-15-11-11-9-25-15-37-22l-11-7-4-7a322 322 0 0 1-24-121c1-20 5-41 11-61 5-13 11-26 20-36 7-10 16-18 28-22-3-10-4-20 0-29 4-15 15-27 29-35 18-10 37-16 57-20 27-5 56-8 83-12 26-4 52-11 78-18 19-5 38-10 58-11 16 0 32 2 47 9Z" fill="#000000"/><path d="M486 236c57-2 115 18 159 56a209 209 0 0 1 73 190c-1 4-1 8-4 12l-1-3v-33a215 215 0 0 0-172-206 235 235 0 0 0-270 153c-12 37-14 78-6 116 6-2 12-2 17-2 2 1 5 1 6 3s0 3-1 4l-12 4c-14 3-27 8-37 18a63 63 0 0 0-22 45c0 12 3 24 8 35 8 13 19 24 33 31 18 10 41 13 62 7 2-1 4-2 6-1s3 4 4 6l15 30a215 215 0 0 0 72 63c28 15 59 21 90 26 3 1 8 1 10 4 1 2 0 3-2 4l-11 1a231 231 0 0 1-147-62c5 18 8 36 8 54 0 12-2 23-6 34-5 10-11 18-19 26a196 196 0 0 1-60 43c-1-1 1-2 2-3l17-14c13-12 25-23 35-38a93 93 0 0 0 17-65l-4-39-2-10-12-17c-5-10-11-20-13-31a93 93 0 0 1-96-31 81 81 0 0 1-19-51c0-12 3-23 8-34 9-16 23-29 40-36-8-31-8-62-3-93 8-40 26-77 51-108 45-54 115-87 186-88Z" fill="#000"/><path d="M541 252a214 214 0 0 1 172 206v33c-1 5-2 10-1 15-2 2-3 3-3 5-3 18-1 37 1 55 4 29 6 59 2 88-3 28-13 56-30 79-16 21-38 34-62 43-15 6-30 9-45 13-11 2-22 4-32 8 1 2 4 1 6 2 12 1 24-1 36-2-5 8-8 17-9 26-2 10 2 19 9 26 6 7 15 11 24 14 5 2 11 3 17 3 7 9 13 18 14 30 2 12-1 24-8 34-9 14-22 23-37 30-18 9-38 15-57 18a352 352 0 0 1-192-23c-18-10-38-23-48-42-4-7-8-16-6-24 18-10 33-23 47-38 8-8 14-16 19-26 4-11 6-22 6-34 0-18-3-36-8-54a235 235 0 0 0 147 62l11-1c2-1 3-2 2-4-2-3-7-3-10-4-31-5-62-11-90-26-18-10-36-22-50-37-8-8-16-17-22-26l-15-30c-1-2-2-5-4-6s-4 0-6 1a82 82 0 0 1-95-38c-5-11-8-23-8-35 1-17 9-34 22-45 10-10 23-15 37-18l12-4c1-1 2-2 1-4s-4-2-6-3c-5 0-11 0-17 2-8-38-6-79 6-116a236 236 0 0 1 270-153Z" fill="#ffffff"/><path d="m712 506 3 3 1 13 3 45c3 20 5 40 5 60 0 16-1 32-5 47-6 28-20 56-40 76a174 174 0 0 1-88 46c-1 9-4 16-4 25-1 6 2 10 5 15 8 8 18 14 28 19l18 9c-3 3-8 1-12 2-6 0-12-1-17-3-9-3-18-7-24-14-7-7-11-16-9-26 1-9 4-18 9-26-12 1-24 3-36 2-2-1-5 0-6-2 10-4 21-6 32-8 15-4 30-7 45-13 24-9 46-22 62-43 17-23 27-51 30-79 4-29 2-59-2-88-2-18-4-37-1-55 0-2 1-3 3-5ZM262 566c6 0 12 1 15 6 2 3 2 7 1 10-3 8-9 14-11 22-1 4 0 7 3 9 7 5 16 7 24 10l-2 2h-11c-6-1-12-2-17-5-5-4-9-11-7-18 2-9 9-15 12-23-7-4-14-2-20-8 3-4 8-6 13-5Z" fill="#000"/><path d="M683 467c8 6 11 15 12 25 1 5 1 12-2 16-2 5-10 5-12 0-3-4-2-10-3-14-1-5-3-11-7-14-4-2-8-1-11 0 9 13 9 30 4 45-2 6-5 12-9 17-4 3-8 6-12 7-4 2-10 1-14-2-5-5-7-11-7-17-1 4-2 9-6 12-2-2-3-3-3-6-1-7 0-14 2-20 4-14 11-26 20-36 7-7 15-13 25-16 8-2 16-1 23 3ZM479 473c18 7 33 21 40 40 3 7 5 15 4 22 0 2-1 5-3 4-3-2-5-6-6-9-5-9-10-17-17-25-8-9-18-16-29-19 6 10 8 22 8 34-1 11-5 22-12 30-5 6-12 11-20 10-6 0-11-1-15-5-9-7-13-17-15-28-1-8 0-15 2-22l-7 8c-3 4-10 4-13 0s-2-9 1-12c9-15 24-27 41-31 13-3 28-2 41 3Z" fill="#000000"/><path d="m688 421 1 2-13 14c-7 6-14 10-22 14l-26 19-13 6-9 1-10 20-1 1-1-1c-2-5 0-13 1-19 2-6 2-12 8-16 3-3 7-3 10-5l31-20c8-6 16-11 25-13l19-3ZM371 430c9 0 19 0 28 2 9 1 17 4 26 6 5 2 10 1 15 2 8 0 15-1 23 2 8 2 16 3 23 6 12 3 24 5 35 11 0-2 0-4 2-6 2-1 5 0 6 2 5 7 8 17 11 25 1 4-2 9-6 9-5 1-8-4-12-6-5-2-7-7-12-9l-30-9-19-5-15-3-15-4-24-9-30-9-6-5Z" fill="#000000"/><path d="M603 613v1c-4 8-11 15-20 18-3 1-7 1-9-1v-4c7-5 16-9 24-12l5-2Z" fill="#000000"/><path d="M667 657c2 0 4 0 5 2 2 2 1 5-1 6l-16 4c-21 3-42 7-64 9-6 0-12 2-17 0l15-5 62-13 16-3Z" fill="#000000"/><path d="M617 181c12 4 24 10 34 18 12 10 22 23 27 38a105 105 0 0 1-16 90c-8 11-19 22-32 28-8-2-12-7-17-13-3-4-7-9-12-11l-4 16c-1 2-2 6-5 7-2 3-7 0-10-1l-36-16-42-15c2 6 2 12 1 18 0 2-2 4-4 6h-14c-14-3-29-4-43-3-23 1-46 8-69 13l-18 1-11 27c-8 17-14 34-19 52-1 3-2 7-1 10 2 4 7 5 9 8v5c-4 10-6 21-7 32-3 18-3 36-3 55v17c0 3-4 6-7 6-4 1-8 0-12-2l20 14c2 2 4 5 4 8-1 2-4 3-6 4 3 1 7 3 7 7s-3 6-6 7c-7 2-16-4-18-12 0-3 1-5 5-5-8-4-14-10-18-17-3-4-5-9-5-14 1-2 4 0 6 0-7-6-14-13-19-20-1-3-4-3-6-3l-24-6c-2-1-6-1-7-4l-5-17-8-43a370 370 0 0 1-1-71l7-31a118 118 0 0 1 49-59c-4-10-5-19-2-29 4-15 14-27 28-35 17-11 37-17 57-21 28-6 57-9 85-13 26-4 51-10 76-17l36-9c19-3 37-4 56 0Z" fill="#000000"/></g><g transform="translate(10 -60)"></g></g></svg>