<svg xmlns="http://www.w3.org/2000/svg" viewBox="0 0 980 980" fill="none" shape-rendering="auto"><metadata xmlns:rdf="http://www.w3.org/1999/02/22-rdf-syntax-ns#" xmlns:xsi="http://www.w3.org/2001/XMLSchema-instance" xmlns:dc="http://purl.org/dc/elements/1.1/" xmlns:dcterms="http://purl.org/dc/terms/"><rdf:RDF><rdf:Description><dc:title>Lorelei</dc:title><dc:creator>Lisa Wischofsky</dc:creator><dc:source xsi:type="dcterms:URI">https://www.figma.com/community/file/1198749693280469639</dc:source><dcterms:license xsi:type="dcterms:URI">https://creativecommons.org/publicdomain/zero/1.0/</dcterms:license><dc:rights>Remix of „Lorelei” (https://www.figma.com/community/file/1198749693280469639) by „Lisa Wischofsky”, licensed under „CC0 1.0” (https://creativecommons.org/publicdomain/zero/1.0/)</dc:rights></rdf:Description></rdf:RDF></metadata><mask id="viewboxMask"><rect width="980" height="980" rx="0" ry="0" x="0" y="0" fill="#fff" /></mask><g mask="url(#viewboxMask)"><rect fill="#08a3f4" width="980" height="980" x="0" y="0" /><g transform="translate(10 -60)"><path d="M533 126c2 2 0 5-1 7-6 16-19 26-34 35-17 12-37 19-57 25l7-1c23-4 47-7 70-14 22-7 43-17 63-27 6-3 11-7 17-9 4-2 8 1 9 5 2 6 0 13-2 19-4 13-11 24-20 33l31 10c28 12 53 28 80 40 13 6 27 13 41 16 11 3 22 4 34 4l16-1c2 1 4 1 4 3 1 5-1 11-3 16-4 10-10 19-17 28-9 13-21 24-35 32 6 9 11 17 19 24 10 11 23 19 37 24l5 2c1 2 0 3-1 4-2 4-6 6-10 8-8 2-16 4-24 4 4 16 4 33-3 48l-8 13c3 14 8 27 17 39 4 6 10 11 15 16l4 4c-2 3-2 6-5 8-5 7-13 11-21 14 15 15 24 35 28 55 2 11 2 24-3 34-1 3-4 7-7 7-1 0-2-1-1-2l1-9c1-8-1-16-3-24-2-11-6-21-12-31l-6-9c5 16 6 32 3 48a84 84 0 0 1-46 66c5 8 12 16 22 20 6 3 13 5 20 6l6 1c2 3-3 5-4 7-5 7-12 12-19 17-14 8-29 12-45 14l14 2c11 1 21-1 31-5 2 0 5-2 6 0s-2 6-4 7c-9 9-22 13-35 14s-27-3-38-10c-3 6-8 11-12 16-7 7-14 13-23 18-14 7-30 11-45 9-9-1-19-4-27-10l-5-7c-14-7-29-15-44-20a149 149 0 0 0-94-2 359 359 0 0 0-66 25c-13 9-28 14-44 15-9 1-19 1-28-4 0-1-3-3-1-3a103 103 0 0 0 58-17c-13 4-26 6-39 6s-27-2-38-10c-3-3-8-6-9-10l15-6 21-9-15-3a99 99 0 0 1-47-35l-4-8c-1 4-2 7-5 10h-3c-8-2-13-8-17-15-6-11-11-23-14-35-3-13-4-27 0-41-7 2-15 2-22 1-9-1-19-4-25-12-2-4-5-8-6-13l1-1 1 1 9 6c6 3 12 3 18 2a69 69 0 0 1-32-59c0-5 1-10 3-14 2-3 7-4 9-1l7 8c5 4 11 8 18 7 5 0 11-1 15-4 5-3 9-8 11-13 3-9 5-17 5-26l-3-42-2-25c0-15-3-29-2-44 0-12 2-24 5-36 2-9 6-17 11-25l17-23c-11-1-23 0-34 3l-19 4c3-12 12-19 21-25l21-11c12-6 26-7 39-4-7-14-6-29-3-44 4-16 12-31 25-42 3-3 9-7 14-6l4-1c1 2-2 5-3 8-3 8-6 17-7 26-2 13-2 27 3 39l3 6 4-9 7-10c6-13 17-22 29-30 15-10 31-18 48-24 14-5 29-7 43-11 13-3 26-8 38-13a280 280 0 0 0 66-34c5-2 9-6 13-10Z" fill="#000000"/><path d="M495 231a231 231 0 0 1 219 204c1 10 2 21 0 30-1 4-1 7-4 8-3-10-3-19-4-29a220 220 0 0 0-239-205c-42 4-83 19-117 44l-17 13a221 221 0 0 0-78 164c0 23 7 43 15 64h17c3 1 4 4 2 6l-6 2c-15 1-31 7-42 17-8 9-14 19-16 31-3 15 0 32 8 45 9 15 24 27 40 33 14 5 29 7 43 5 4-1 8-2 11 0v3c-5 5-11 6-18 7-16 3-33-1-47-8a86 86 0 0 1-47-58c-4-18-1-37 9-53 8-12 20-21 34-26-7-14-10-28-12-43-2-18-2-35 0-53 1-13 4-25 8-38a227 227 0 0 1 99-122c41-28 92-43 142-41Z" fill="#000"/><path d="M535 244a220 220 0 0 1 171 200c1 10 1 19 4 29l-2 18v22c-3 4-4 9-4 14-2 8-2 15-2 23v65c0 21-3 42-11 61-4 13-10 24-18 35-10 12-21 22-34 31-11 9-24 17-37 24l-22 14-12 8 9-2c-3 11-3 24-4 36 0 8 1 16 7 22a235 235 0 0 0 81 45c6 7 11 16 13 25 1 9 0 18-4 27-6 10-14 18-23 24-13 10-28 17-43 22a417 417 0 0 1-217 11c-16-3-33-9-48-17-10-5-21-12-28-21-6-6-10-14-11-22-2-10 0-21 5-30 21-13 39-32 49-54 5-11 7-22 8-34 1-16 0-32-1-47-2-20-3-41-8-61 11 12 23 24 37 32 17 11 36 20 55 26 20 7 41 13 63 18l25 3c3 0 6 0 8-2 2-1 1-2 2-3l-17-2c-29-7-58-16-87-27-18-7-36-15-53-27-18-13-33-30-47-47l-11-16-1-1v-3c-3-2-7-1-11 0-14 2-29 0-43-5-16-6-31-18-40-33-8-13-11-30-8-45 2-12 8-22 16-31 11-10 27-16 42-17l6-2c2-2 1-5-2-6h-17c-8-21-15-41-15-64-1-14 2-27 5-41a221 221 0 0 1 73-123l17-13a230 230 0 0 1 185-39Z" fill="#ffffff"/><path d="M708 513c3 3 2 7 3 12v29c0 26 2 54 0 80-3 31-14 63-36 86-25 28-57 51-93 64l2 7v35c1 6 4 10 8 14l26 19 32 20 24 12c2 0 3 1 5 3l-19-5c-19-6-37-14-54-25-9-5-19-12-26-20-6-6-7-14-7-22 1-12 1-25 4-36l-9 2 12-8 22-14c13-7 26-15 37-24 13-9 24-19 34-31a178 178 0 0 0 29-96v-65c0-8 0-15 2-23 0-5 1-10 4-14ZM278 574c5 5 4 14 0 19l-3 7c1 3 5 5 7 6 6 3 12 7 19 9 0 4-3 5-7 5-6-1-13-3-18-6-7-3-13-8-13-16 0-6 5-9 6-14 2-4 0-7-1-11 4-1 7-2 10 1ZM328 667l11 16c14 17 29 34 47 47 17 12 35 20 53 27a714 714 0 0 0 104 29c-1 1 0 2-2 3-2 2-5 2-8 2l-25-3a478 478 0 0 1-118-44c-14-8-26-20-37-32 5 20 6 41 8 61 1 15 2 31 1 47-1 12-3 23-8 34-10 22-28 41-49 54l-14 8c2-4 6-6 9-9 13-11 24-25 34-39 6-10 12-21 14-33 4-19 3-39 3-58l-3-59 2-10c-10-11-19-26-22-41Z" fill="#000"/><path d="M455 468c14 0 27 5 38 13 15 10 26 25 30 43v14c-1 1-2 2-4 1-3-3-5-8-7-12-8-14-18-28-32-36-10-6-22-8-33-6 7 12 11 26 11 40 0 9-4 16-8 24-2 2-5 1-7 1-7 0-13-2-20-4-3-2-8-4-10-8l-1-14 4-19-6 8c-3 4-10 4-13 0-3-3-3-8-1-12 6-8 13-16 22-22 11-8 24-11 37-11ZM684 488c2 1 3 3 0 4l-15 8c5 0 10-1 15 2 3 1 6 5 6 9-4 4-9 7-15 7-15 0-30 3-44 10-3 1-8 2-11-1-4-3-4-9-2-12 2-4 5-6 8-8l45-17c4-1 9-3 13-2Z" fill="#000000"/><path d="M503 394c7 0 14 2 19 6 4 2 7 4 8 8 1 2 0 5-2 6-5 1-10-2-14-3l-9-1c-13-1-26 1-39 4a169 169 0 0 0-60 31c-4 2-9 5-14 4-3 0-3-4-2-7 1-6 7-11 12-16 10-9 23-15 35-20 20-9 44-14 66-12ZM659 396c7-2 14-1 20 3 4 3 8 6 9 11 1 3 1 6-2 7s-7 1-10-1c-5-3-9-6-15-6-5 0-10 1-14 3-8 4-16 11-20 19l-6 9h-3v-6c2-8 7-16 13-22 7-8 17-15 28-17Z" fill="#000000"/><path d="M607 606c0 3-2 6-4 9-4 6-11 10-18 12-5 1-9-2-13 0-4 0-8 1-12-1-2-1-2-4 0-6 3-4 8-7 12-7 4-1 7-1 10 2l1 7c5-2 7-5 11-8l13-8Z" fill="#000000"/><path fill-rule="evenodd" clip-rule="evenodd" d="M661 646c3 3 6 8 7 12 3 5 4 11 3 17l-4-5-1-2-10-15-1-1v-1c-1-2-2-3-1-5 2-2 4-1 7 0Zm-30 25a40 40 0 0 1 29 13c3 4 7 7 8 10 2 4 2 8-2 10-5 4-13 5-20 5a5207 5207 0 0 1-42 1l-28 3-18 1-10 2-19 1c1-3 2-4 5-5l5-6 4-3c7-7 17-12 26-17l2-1c10-5 21-9 31-11 10-3 19-4 29-3Zm-6 29c-1-7 1-14 4-20-11-1-22 0-32 3l-1 11-1 7 30-1Zm11-19 1 1 4 1c6 2 11 7 15 12l3 3c-6 2-12 2-19 2h-10c4-6 6-12 6-19Zm-48 20c-1-5 0-10 1-15a254 254 0 0 0-43 21c10-3 21-4 31-5l11-1Z" fill="#000000"/><path d="M604 142c4 3 4 10 3 15-3 16-11 31-22 42 24 6 46 16 68 28l37 19c14 7 29 15 45 19 10 3 21 4 31 4l18-1 7 1v11c-2 7-6 14-10 21-11 18-25 34-43 45l-12 6c13 10 28 21 36 36 2 3 5 8 3 12-4 4-11 5-16 6-10 1-21 2-31 1-18-2-35-5-52-9-26-6-51-14-73-28l10 17c1 2 3 6 0 8-4 3-9 5-14 5a176 176 0 0 1-160-53c-2 11-5 23-9 34-2 6-5 13-10 18l-6 5-14-10c-7-7-12-15-16-24-7 15-17 27-28 40l-23 24-14 13-2 2-6 42c-1 20-1 40 1 60 0 3 1 8-2 10-2 2-5 1-7 0l-17-6c-13-7-25-17-35-28a241 241 0 0 1-34-74 165 165 0 0 1 52-162c-7-5-11-11-13-19a81 81 0 0 1 25-77c4-3 9-7 14-6l5-1-5 13c-6 15-9 31-6 48 1 6 3 13 6 18l5-11c6-7 14-14 22-19 21-14 44-23 67-31 22-7 45-11 68-14 24-4 49-7 72-14 20-7 40-16 60-26 6-3 11-7 17-9 2-2 5-3 8-1Z" fill="#000000"/></g><g transform="translate(10 -60)"></g></g></svg>